<svg width="83" height="34" viewBox="0 0 83 34" fill="none" xmlns="http://www.w3.org/2000/svg">
<path d="M10.6161 9.01013C10.5768 9.07614 10.4942 9.136 10.3684 9.18973C10.2528 9.22993 10.123 9.21152 9.97914 9.13449C9.87419 9.07631 9.75141 9.02059 9.6108 8.96733C9.46854 8.90219 9.31522 8.84464 9.15083 8.79467C8.98645 8.7447 8.8237 8.70662 8.6626 8.68042C8.5015 8.65423 8.34962 8.65098 8.20698 8.67069C8.02867 8.69533 7.84423 8.76322 7.65365 8.87435C7.47495 8.98384 7.32496 9.12571 7.20367 9.29995C6.97133 9.6349 6.91053 9.9401 7.02127 10.2155C7.14226 10.4774 7.3856 10.7043 7.75129 10.896C7.98661 11.021 8.24058 11.1494 8.5132 11.2814C8.78418 11.4014 9.04922 11.5222 9.30831 11.6439C9.5793 11.764 9.83163 11.8805 10.0653 11.9936C10.3109 12.105 10.5243 12.2028 10.7055 12.2867C10.9391 12.3998 11.1626 12.5264 11.3757 12.6666C11.5889 12.8067 11.7816 12.9739 11.9538 13.1682C12.1244 13.3505 12.2694 13.5667 12.3887 13.8167C12.5081 14.0668 12.5907 14.3582 12.6367 14.691C12.6439 15.3563 12.4546 15.9155 12.069 16.3685C11.6936 16.808 11.228 17.1207 10.6722 17.3065C10.1861 17.4706 9.69034 17.521 9.18491 17.4575C8.69136 17.3925 8.2527 17.1987 7.86895 16.8762C7.7726 16.7926 7.68321 16.6717 7.60078 16.5135C7.51835 16.3553 7.49598 16.2372 7.53367 16.1593C7.59021 16.0425 7.70517 15.9539 7.87855 15.8936C8.05028 15.8214 8.1878 15.8085 8.29111 15.8548C8.59901 16.0666 8.94542 16.2065 9.33034 16.2745C9.71362 16.3306 10.1008 16.2831 10.4918 16.1322C10.791 16.0182 11.0226 15.8529 11.1865 15.6364C11.3487 15.4081 11.4364 15.1658 11.4495 14.9096C11.4728 14.6399 11.4001 14.3773 11.2316 14.122C11.0733 13.8531 10.8181 13.6279 10.4659 13.4464C9.92765 13.1453 9.35698 12.8728 8.75394 12.6291C8.16279 12.3837 7.55318 12.0924 6.92511 11.7552C6.61886 11.5552 6.38064 11.3216 6.21047 11.0544C6.05217 10.7855 5.95414 10.5144 5.91636 10.241C5.87694 9.95572 5.89942 9.68005 5.9838 9.41399C6.06653 9.13605 6.20092 8.88126 6.38696 8.64961C6.57137 8.40608 6.79718 8.19923 7.0644 8.02905C7.33162 7.85887 7.63595 7.73808 7.97739 7.66667C8.44959 7.57719 8.9212 7.615 9.39223 7.78008C9.86162 7.93327 10.2552 8.15145 10.5729 8.43463C10.6422 8.49774 10.6783 8.5836 10.6812 8.69223C10.696 8.79921 10.6743 8.90518 10.6161 9.01013ZM17.357 9.47785C17.7317 9.55934 18.056 9.71441 18.3299 9.94307C18.6156 10.1701 18.8469 10.441 19.0236 10.7558C19.1987 11.0586 19.3161 11.3816 19.3756 11.7247C19.447 12.0661 19.4557 12.392 19.4016 12.7023C19.3169 13.0532 19.1956 13.4031 19.0379 13.752C18.8802 14.1009 18.6878 14.4182 18.4608 14.704C18.2337 14.9897 17.9645 15.2329 17.653 15.4334C17.3415 15.6339 16.9837 15.7621 16.5795 15.8179C16.0922 15.8853 15.6665 15.829 15.3024 15.6492C14.9384 15.4693 14.6366 15.2142 14.3971 14.8839C14.1577 14.5535 13.977 14.1666 13.8552 13.7231C13.7452 13.278 13.6947 12.8247 13.7036 12.3631C13.7051 12.0237 13.738 11.6921 13.8023 11.3682C13.8768 11.0308 13.9868 10.731 14.1323 10.4686C14.2761 10.1943 14.4503 9.9643 14.6548 9.77856C14.8712 9.59118 15.1279 9.47696 15.4251 9.4359C15.5915 9.4129 15.8045 9.41982 16.064 9.45665C16.3218 9.48159 16.5659 9.53871 16.7963 9.62802C16.9311 9.46402 17.118 9.41397 17.357 9.47785ZM16.8593 10.8731C16.7171 10.808 16.5478 10.7223 16.3514 10.6162C16.1653 10.4966 16.0068 10.4458 15.8761 10.4638C15.7334 10.4836 15.5998 10.5686 15.4752 10.7191C15.3625 10.8679 15.265 11.0389 15.1827 11.232C15.1106 11.4115 15.0512 11.5954 15.0045 11.7836C14.9578 11.9717 14.93 12.1209 14.921 12.2312C14.91 12.4144 14.9157 12.6317 14.9384 12.883C14.961 13.1342 15.0133 13.3814 15.0953 13.6245C15.1757 13.8556 15.2953 14.0632 15.4539 14.2472C15.6229 14.4177 15.8498 14.5257 16.1347 14.5711C16.3077 14.5957 16.5038 14.5686 16.7231 14.4898C16.9407 14.3992 17.1467 14.2677 17.3409 14.0955C17.5471 13.9217 17.7288 13.7027 17.8862 13.4387C18.0554 13.173 18.1722 12.8783 18.2364 12.5544C18.3077 12.1933 18.2584 11.8367 18.0886 11.4846C17.9291 11.119 17.6654 10.8768 17.2977 10.758C17.2227 10.829 17.1436 10.8702 17.0604 10.8817C16.9772 10.8932 16.9102 10.8903 16.8593 10.8731ZM21.6694 6.71962C21.9079 8.0071 22.1945 9.33638 22.5294 10.7075C22.8625 12.0666 23.1994 13.3648 23.5399 14.6018C23.6479 15.1199 23.5422 15.4071 23.2229 15.4633C23.1515 15.4731 23.0769 15.4592 22.999 15.4215C22.9195 15.372 22.8443 15.3097 22.7733 15.2347C22.7024 15.1597 22.6306 15.0787 22.5581 14.9918C22.4974 14.9033 22.4562 14.8242 22.4344 14.7545C22.2556 14.1614 22.0777 13.5319 21.9009 12.8658C21.724 12.1997 21.5532 11.5328 21.3882 10.8651C21.2335 10.1839 21.0872 9.51967 20.9493 8.87245C20.8114 8.22523 20.6988 7.62904 20.6113 7.08388C20.5957 6.79531 20.6044 6.55182 20.6376 6.35341C20.6691 6.14312 20.7808 6.03078 20.9726 6.01638C21.1763 6.00035 21.3305 6.06385 21.435 6.20688C21.5498 6.33639 21.628 6.5073 21.6694 6.71962ZM25.8552 9.26666C25.8282 9.59747 25.8062 9.96393 25.789 10.3661C25.7703 10.7563 25.7677 11.1322 25.7813 11.4937C25.8068 11.8536 25.8512 12.1746 25.9144 12.4566C25.9894 12.7369 26.0946 12.9284 26.2299 13.0308C26.4369 13.0385 26.6572 12.9233 26.8908 12.6851C27.1228 12.435 27.3414 12.1322 27.5467 11.7768C27.752 11.4213 27.9302 11.0454 28.0813 10.649C28.2309 10.2407 28.3275 9.8881 28.3713 9.59132C28.3991 9.4421 28.4202 9.28777 28.4345 9.12831C28.4488 8.96885 28.4445 8.80591 28.4215 8.63949C28.4083 8.54439 28.4555 8.44703 28.5628 8.34739C28.6805 8.23423 28.78 8.16595 28.8616 8.14257C28.9194 8.12247 28.9864 8.12532 29.0627 8.15113C29.1508 8.17529 29.2295 8.21893 29.2988 8.28204C29.3783 8.33162 29.4485 8.40067 29.5092 8.4892C29.5801 8.56419 29.6221 8.64924 29.6353 8.74434C29.7083 9.09766 29.7982 9.48501 29.9049 9.90637C30.0115 10.3277 30.1242 10.7483 30.2427 11.168C30.3732 11.5861 30.502 11.9923 30.6292 12.3866C30.7563 12.7809 30.8777 13.1336 30.9934 13.4447C31.0471 13.5705 31.032 13.724 30.948 13.9052C30.864 14.0864 30.7591 14.2039 30.6333 14.2576C30.5296 14.2962 30.415 14.2999 30.2896 14.2688C30.176 14.236 30.0797 14.1524 30.0005 14.018C29.9181 13.8598 29.8308 13.6659 29.7385 13.4364C29.6564 13.1933 29.5736 12.9443 29.4899 12.6894C29.4164 12.4209 29.3455 12.1702 29.277 11.9374C29.2068 11.6927 29.1543 11.488 29.1194 11.3232C28.9854 11.6688 28.8166 12.0253 28.613 12.3926C28.4196 12.7464 28.1992 13.0797 27.9516 13.3925C27.7144 13.6918 27.4519 13.9401 27.1642 14.1373C26.8867 14.321 26.585 14.4172 26.2592 14.4259C25.7755 14.4322 25.3513 14.0365 24.9867 13.2389C24.8456 12.9192 24.7472 12.5573 24.6913 12.1531C24.6474 11.7473 24.622 11.345 24.6154 10.9462C24.619 10.5338 24.6318 10.1444 24.6538 9.77791C24.6878 9.4098 24.7189 9.10871 24.7471 8.87464C24.7577 8.77626 24.7938 8.68648 24.8552 8.60531C24.9151 8.51224 24.9942 8.47103 25.0925 8.48166C25.2758 8.49268 25.451 8.57749 25.6183 8.73609C25.7975 8.89304 25.8764 9.0699 25.8552 9.26666ZM35.7516 8.40798C35.9758 8.36489 36.2091 8.38717 36.4513 8.47483C36.6936 8.5625 36.832 8.73114 36.8665 8.98077C36.8706 9.18613 36.7758 9.3325 36.5819 9.41985C36.3983 9.49368 36.247 9.53881 36.1282 9.55524C35.8904 9.58809 35.6357 9.62934 35.3639 9.67901C35.0922 9.72867 34.8153 9.7851 34.5333 9.8483C34.5637 10.2439 34.5909 10.6156 34.6147 10.9637C34.6505 11.31 34.6813 11.6207 34.7072 11.8958C34.7314 12.1589 34.755 12.3737 34.778 12.5401C34.801 12.7066 34.8193 12.7949 34.8328 12.8051C35.0878 12.7214 35.3564 12.6056 35.6388 12.4575C35.9315 12.296 36.2173 12.1293 36.4965 11.9574C36.7858 11.7721 37.0633 11.5884 37.3288 11.4063C37.6047 11.2107 37.8643 11.0295 38.1078 10.8626C38.2184 10.7867 38.3229 10.7541 38.4213 10.7647C38.5316 10.7737 38.6044 10.8182 38.6396 10.8981C38.6815 11.0256 38.6858 11.1885 38.6527 11.3869C38.6195 11.5853 38.5363 11.7725 38.4032 11.9484C38.2446 12.1156 38.0298 12.3149 37.7589 12.5462C37.4983 12.7639 37.213 12.979 36.9032 13.1914C36.5933 13.4038 36.2751 13.5992 35.9484 13.7776C35.632 13.9424 35.3447 14.0548 35.0865 14.1147C34.6991 14.2046 34.3872 14.1387 34.1506 13.917C33.914 13.6953 33.7576 13.3959 33.6812 13.0188C33.6049 12.6417 33.5382 12.2027 33.4811 11.7018C33.4359 11.1992 33.3865 10.667 33.3331 10.105C33.1106 10.16 32.8939 10.2141 32.6832 10.2675C32.4828 10.3073 32.2891 10.3522 32.1022 10.4023C31.9477 10.4236 31.7704 10.4118 31.5704 10.3667C31.3822 10.3201 31.2742 10.1957 31.2462 9.99359C31.2364 9.92227 31.253 9.82307 31.296 9.69598C31.339 9.5689 31.4574 9.46168 31.6513 9.37432C32.1271 9.22377 32.6582 9.07771 33.2443 8.93615C33.2028 8.37253 33.1696 7.82592 33.1449 7.29632C33.1202 6.76672 33.0961 6.28549 33.0726 5.85262C33.0648 5.70834 33.0891 5.57777 33.1457 5.46094C33.2022 5.3441 33.2721 5.27993 33.3553 5.26843C33.5557 5.22862 33.7533 5.25583 33.9481 5.35006C34.153 5.43077 34.2654 5.54244 34.2851 5.68509C34.2934 6.09582 34.3091 6.56004 34.3322 7.07775C34.3671 7.59382 34.4037 8.12178 34.442 8.66163C34.6764 8.605 34.9007 8.56191 35.1146 8.53234C35.3388 8.48925 35.5512 8.44779 35.7516 8.40798ZM41.6332 5.05134C41.6258 5.17349 41.5516 5.25037 41.4106 5.28197C41.2696 5.31356 41.1516 5.33593 41.0565 5.34907C40.761 5.40202 40.456 5.47445 40.1416 5.56634C39.8391 5.6566 39.5221 5.77309 39.1905 5.91582C39.0544 5.98308 38.8974 5.9866 38.7195 5.92638C38.5416 5.86617 38.4176 5.71371 38.3474 5.46901C38.3343 5.37392 38.3593 5.29172 38.4224 5.22243C38.4855 5.15314 38.5613 5.08815 38.6498 5.02746C38.7945 4.93479 38.9705 4.84989 39.1779 4.77278C39.3837 4.68378 39.5919 4.61261 39.8026 4.55927C40.0252 4.50429 40.2383 4.46878 40.442 4.45274C40.6441 4.42482 40.813 4.41965 40.9487 4.43725C41.1471 4.4704 41.308 4.53902 41.4314 4.64311C41.5667 4.74556 41.6339 4.88163 41.6332 5.05134ZM42.0435 11.0456C42.153 11.2243 42.2233 11.4266 42.2546 11.6524C42.296 11.8647 42.2571 12.0215 42.1378 12.1228C41.9862 12.2528 41.8071 12.2715 41.6005 12.1789C41.3938 12.0863 41.229 11.9455 41.106 11.7566C40.9408 11.525 40.7978 11.2359 40.6772 10.8891C40.555 10.5305 40.4514 10.1753 40.3665 9.82364C40.2815 9.47195 40.2118 9.1424 40.1572 8.83498C40.1145 8.52592 40.0824 8.29412 40.0611 8.13959C40.05 7.97152 40.0762 7.81042 40.1397 7.65628C40.2032 7.50214 40.2987 7.40415 40.4261 7.3623C40.6417 7.34463 40.8281 7.42185 40.9851 7.59397C41.1405 7.75421 41.2311 7.97185 41.257 8.2469C41.2866 8.46087 41.3254 8.69778 41.3734 8.95766C41.4214 9.21753 41.4813 9.47576 41.5531 9.73235C41.6249 9.98894 41.7019 10.2388 41.7839 10.4818C41.8643 10.713 41.9508 10.9009 42.0435 11.0456ZM47.2024 5.35388C47.577 5.43537 47.9013 5.59044 48.1752 5.8191C48.461 6.04613 48.6922 6.31702 48.869 6.63179C49.0441 6.93467 49.1614 7.25766 49.2209 7.60074C49.2923 7.94218 49.301 8.26806 49.247 8.57837C49.1622 8.92928 49.041 9.27917 48.8832 9.62804C48.7255 9.97692 48.5331 10.2942 48.3061 10.58C48.0791 10.8658 47.8098 11.1089 47.4983 11.3094C47.1869 11.51 46.829 11.6381 46.4249 11.694C45.9375 11.7613 45.5118 11.7051 45.1477 11.5252C44.7837 11.3453 44.4819 11.0902 44.2425 10.7599C44.003 10.4296 43.8223 10.0427 43.7005 9.59917C43.5905 9.15403 43.54 8.70068 43.5489 8.23912C43.5505 7.89971 43.5834 7.56808 43.6477 7.24424C43.7222 6.90686 43.8322 6.60698 43.9776 6.3446C44.1214 6.07034 44.2956 5.84034 44.5001 5.6546C44.7165 5.46721 44.9733 5.35299 45.2704 5.31193C45.4369 5.28893 45.6498 5.29585 45.9093 5.33268C46.1671 5.35762 46.4113 5.41474 46.6416 5.50405C46.7765 5.34005 46.9634 5.29 47.2024 5.35388ZM46.7047 6.74914C46.5624 6.684 46.3931 6.59837 46.1967 6.49225C46.0106 6.3726 45.8521 6.32181 45.7214 6.33988C45.5787 6.35959 45.4451 6.44468 45.3206 6.59515C45.2079 6.74397 45.1104 6.91493 45.028 7.10802C44.9559 7.28758 44.8965 7.47144 44.8498 7.6596C44.8031 7.84776 44.7753 7.99697 44.7663 8.10724C44.7553 8.29047 44.7611 8.50773 44.7837 8.759C44.8063 9.01027 44.8586 9.25743 44.9407 9.50049C45.0211 9.73166 45.1406 9.93925 45.2993 10.1233C45.4682 10.2937 45.6951 10.4017 45.98 10.4471C46.153 10.4717 46.3491 10.4446 46.5684 10.3658C46.7861 10.2752 46.992 10.1438 47.1863 9.97155C47.3924 9.7977 47.5742 9.57876 47.7315 9.31474C47.9007 9.04907 48.0175 8.75432 48.0818 8.43047C48.153 8.06932 48.1037 7.71271 47.9339 7.36064C47.7744 6.99503 47.5108 6.75284 47.143 6.63406C47.068 6.70499 46.9889 6.7462 46.9057 6.7577C46.8225 6.7692 46.7555 6.76635 46.7047 6.74914ZM51.4982 5.10555C51.5585 5.27893 51.622 5.47608 51.6889 5.69701C51.766 5.90441 51.8448 6.12369 51.9252 6.35486C52.0039 6.57414 52.0776 6.80019 52.1461 7.03301C52.2146 7.26582 52.2755 7.48757 52.3289 7.69825C52.4288 7.36948 52.5382 7.02123 52.6569 6.65351C52.7757 6.28579 52.9105 5.94614 53.0613 5.63457C53.2223 5.30947 53.3966 5.03705 53.5843 4.81729C53.7839 4.59589 54.0145 4.46712 54.276 4.43098C54.6682 4.37678 55.0148 4.47425 55.3158 4.72341C55.6286 4.97092 55.9037 5.29632 56.1412 5.69962C56.3888 6.08938 56.5982 6.50867 56.7693 6.95749C56.9403 7.4063 57.0861 7.80408 57.2067 8.15084C57.3224 8.46194 57.2126 8.71939 56.8773 8.92319C56.7224 9.0294 56.5992 9.05853 56.5078 9.0106C56.4164 8.96266 56.3606 8.90979 56.3405 8.852C56.2614 8.71757 56.1496 8.47862 56.0053 8.13515C55.8728 7.79003 55.7216 7.44144 55.5518 7.08936C55.3939 6.73565 55.2248 6.43194 55.0444 6.17825C54.8639 5.92456 54.6862 5.82192 54.5112 5.87033C54.2989 5.91178 54.1309 6.09854 54.0071 6.4306C53.899 6.69994 53.789 6.99982 53.6772 7.33023C53.5756 7.64712 53.4757 7.97589 53.3774 8.31655C53.2774 8.64533 53.1783 8.98004 53.08 9.32071C52.992 9.64784 52.9066 9.95037 52.8238 10.2283C52.7521 10.323 52.6533 10.3972 52.5275 10.451C52.4119 10.4912 52.2855 10.4965 52.1481 10.467C52.0243 10.4478 51.921 10.4015 51.8382 10.3282C51.7554 10.2548 51.7082 10.1765 51.6967 10.0933C51.4616 9.18091 51.2321 8.35253 51.0081 7.60818C50.796 6.8622 50.5458 6.1033 50.2574 5.33151C50.1364 5.0696 50.089 4.8581 50.1152 4.697C50.1517 4.52237 50.3209 4.43235 50.623 4.42695C51.0489 4.44078 51.3406 4.66698 51.4982 5.10555ZM21.522 19.3083C21.5614 19.5936 21.5998 19.9154 21.6372 20.2736C21.6864 20.6302 21.7374 20.9987 21.7899 21.3791C21.8544 21.7578 21.9145 22.1493 21.9704 22.5535C22.0381 22.956 22.1034 23.3407 22.1662 23.7075C22.2522 23.4534 22.3628 23.2018 22.498 22.953C22.6316 22.6923 22.7871 22.4588 22.9645 22.2525C23.1539 22.0447 23.3541 21.8716 23.5651 21.7335C23.7881 21.5936 24.0363 21.5048 24.3097 21.467C24.6069 21.426 24.8815 21.4849 25.1336 21.6439C25.3977 21.8013 25.6351 22.0289 25.8458 22.3269C26.0668 22.6113 26.2639 22.9414 26.437 23.3173C26.6084 23.6812 26.7577 24.0604 26.8849 24.4547C27.0223 24.8354 27.1343 25.2076 27.2208 25.5712C27.3058 25.9229 27.3782 26.2278 27.4381 26.4861C27.4644 26.6763 27.4382 26.8374 27.3595 26.9694C27.2809 27.1014 27.1761 27.1764 27.0454 27.1945C26.9503 27.2076 26.8232 27.1646 26.6641 27.0655C26.5153 26.9528 26.3989 26.8114 26.3148 26.6413C26.2594 26.5036 26.195 26.3005 26.1216 26.032C26.0481 25.7635 25.9663 25.478 25.876 25.1755C25.7841 24.8612 25.6804 24.5484 25.5647 24.2373C25.449 23.9262 25.3204 23.6533 25.179 23.4184C25.0477 23.17 24.9009 22.9844 24.7386 22.8615C24.5762 22.7385 24.4024 22.708 24.2172 22.77C23.9282 22.8705 23.6954 23.1146 23.5188 23.5024C23.3541 23.8886 23.2198 24.3191 23.1158 24.7938C23.0237 25.2668 22.9562 25.7425 22.9132 26.2209C22.8822 26.6977 22.8626 27.082 22.8545 27.3738C22.8365 27.5944 22.7917 27.752 22.7199 27.8467C22.6585 27.9279 22.5802 27.975 22.4851 27.9882C22.39 28.0013 22.2943 27.9661 22.1979 27.8825C22.1135 27.7972 22.0265 27.6942 21.9372 27.5733C21.858 27.4388 21.7848 27.3036 21.7175 27.1675C21.6486 27.0195 21.6009 26.8929 21.5742 26.7875C21.4261 26.1539 21.2939 25.5482 21.1778 24.9707C21.06 24.3813 20.9481 23.791 20.8422 23.2C20.7482 22.6073 20.6585 22.0018 20.5731 21.3837C20.4861 20.7537 20.4051 20.0804 20.3304 19.3639C20.2482 18.7696 20.4252 18.4725 20.8614 18.4728C21.0073 18.4769 21.1469 18.5666 21.2802 18.7421C21.4118 18.9056 21.4924 19.0943 21.522 19.3083ZM32.4669 21.5755C32.041 21.913 31.5713 22.1959 31.0578 22.4244C30.5426 22.6409 29.9759 22.7919 29.3578 22.8773C29.439 23.2901 29.6039 23.6065 29.8524 23.8266C30.0992 24.0348 30.3863 24.1404 30.7139 24.1436C30.9073 24.1411 31.0967 24.1089 31.282 24.047C31.4791 23.9834 31.656 23.9044 31.8126 23.8101C31.9794 23.7023 32.1275 23.5909 32.257 23.4761C32.3865 23.3613 32.4982 23.249 32.592 23.1391C32.6859 23.0292 32.7906 22.9542 32.9062 22.914C33.0201 22.8619 33.1085 22.8436 33.1712 22.8592C33.3458 22.8956 33.4299 23.0657 33.4234 23.3695C33.2858 23.7761 33.0575 24.1408 32.7387 24.4635C32.4182 24.7743 32.043 24.9957 31.613 25.1278C31.2425 25.2517 30.8478 25.2881 30.4288 25.2369C30.0099 25.1858 29.6186 25.0279 29.2549 24.7632C28.9438 24.5275 28.6914 24.2353 28.4978 23.8865C28.3043 23.5378 28.1625 23.1697 28.0727 22.7823C27.9861 22.4188 27.9674 22.064 28.0165 21.718C28.0775 21.3704 28.1977 21.057 28.3772 20.7778C28.555 20.4867 28.7929 20.2358 29.0908 20.025C29.3888 19.8143 29.7501 19.6674 30.1748 19.5845C30.681 19.4782 31.1577 19.5093 31.605 19.6776C32.0522 19.846 32.387 20.1208 32.6092 20.5019C32.7355 20.7146 32.7864 20.9075 32.7619 21.0805C32.7492 21.2518 32.6509 21.4168 32.4669 21.5755ZM30.2488 20.6464C30.1332 20.6866 30.0082 20.7463 29.8738 20.8254C29.7512 20.9029 29.6371 20.9974 29.5314 21.1089C29.4359 21.2069 29.3488 21.3219 29.2701 21.4539C29.2017 21.5724 29.1714 21.7038 29.1792 21.8481C29.3813 21.8202 29.5987 21.772 29.8316 21.7034C30.0763 21.6333 30.3083 21.5588 30.5275 21.4801C30.7571 21.3878 30.962 21.2928 31.1423 21.1952C31.3346 21.096 31.4903 20.9957 31.6096 20.8945C31.4833 20.6817 31.2861 20.5697 31.018 20.5583C30.7601 20.5333 30.5037 20.5627 30.2488 20.6464ZM39.4633 18.61C39.2658 18.7584 39.0572 18.9144 38.8375 19.078C38.6297 19.24 38.4193 19.4265 38.2062 19.6377C38.0033 19.8353 37.8113 20.0678 37.6302 20.3351C37.4593 20.5889 37.3129 20.8877 37.1908 21.2317C37.0155 21.7162 36.9191 22.202 36.9015 22.689C36.8824 23.1641 36.8921 23.6291 36.9308 24.0841C36.9603 24.2981 36.9372 24.5254 36.8615 24.766C36.7959 24.9931 36.674 25.119 36.4957 25.1436C36.2699 25.1749 36.07 25.0874 35.8962 24.8812C35.7325 24.6616 35.6122 24.448 35.5351 24.2406C35.2164 23.4246 34.935 22.6155 34.6909 21.8133C34.4451 20.9993 34.2181 20.1888 34.0096 19.3817C33.9866 19.2153 34.0194 19.1017 34.1079 19.041C34.2083 18.9787 34.3248 18.9445 34.4572 18.9383C34.6014 18.9305 34.7431 18.9472 34.882 18.9886C35.021 19.03 35.1114 19.1144 35.1533 19.2419C35.2616 19.6751 35.3851 20.1305 35.5237 20.608C35.6608 21.0736 35.7888 21.4739 35.9077 21.8087C35.8994 21.398 35.976 20.9877 36.1374 20.5777C36.2988 20.1678 36.5127 19.7869 36.779 19.4351C37.0573 19.0817 37.3777 18.7709 37.7404 18.5028C38.115 18.233 38.5054 18.0336 38.9116 17.9048C39.0866 17.8564 39.2352 17.8359 39.3574 17.8432C39.4795 17.8506 39.5685 17.8807 39.6243 17.9336C39.68 17.9864 39.6991 18.0807 39.6815 18.2164C39.6758 18.3504 39.6031 18.4816 39.4633 18.61ZM45.1259 19.8263C44.7001 20.1638 44.2304 20.4467 43.7168 20.6752C43.2016 20.8917 42.6349 21.0427 42.0168 21.1281C42.0981 21.5409 42.2629 21.8573 42.5114 22.0774C42.7582 22.2856 43.0454 22.3912 43.3729 22.3944C43.5664 22.3919 43.7557 22.3597 43.941 22.2978C44.1382 22.2342 44.315 22.1552 44.4716 22.0609C44.6384 21.9531 44.7865 21.8417 44.916 21.7269C45.0456 21.6121 45.1572 21.4998 45.2511 21.3899C45.3449 21.28 45.4496 21.205 45.5652 21.1648C45.6792 21.1127 45.7675 21.0944 45.8302 21.11C46.0048 21.1464 46.0889 21.3165 46.0824 21.6203C45.9448 22.0269 45.7166 22.3916 45.3977 22.7143C45.0773 23.0251 44.702 23.2465 44.2721 23.3786C43.9015 23.5025 43.5068 23.5389 43.0879 23.4877C42.6689 23.4366 42.2776 23.2787 41.914 23.014C41.6028 22.7783 41.3504 22.4861 41.1568 22.1373C40.9633 21.7886 40.8216 21.4205 40.7317 21.0331C40.6451 20.6696 40.6264 20.3148 40.6755 19.9688C40.7365 19.6212 40.8567 19.3078 41.0362 19.0286C41.214 18.7375 41.4519 18.4866 41.7499 18.2758C42.0478 18.0651 42.4091 17.9182 42.8338 17.8353C43.34 17.729 43.8167 17.7601 44.264 17.9284C44.7112 18.0968 45.046 18.3716 45.2683 18.7527C45.3946 18.9654 45.4454 19.1583 45.4209 19.3313C45.4082 19.5026 45.3099 19.6676 45.1259 19.8263ZM42.9078 18.8972C42.7922 18.9374 42.6672 18.9971 42.5328 19.0762C42.4102 19.1537 42.2961 19.2482 42.1904 19.3597C42.0949 19.4577 42.0078 19.5727 41.9291 19.7047C41.8607 19.8232 41.8304 19.9546 41.8382 20.0989C42.0403 20.071 42.2578 20.0228 42.4906 19.9542C42.7353 19.8841 42.9673 19.8096 43.1866 19.7309C43.4161 19.6386 43.621 19.5436 43.8014 19.446C43.9936 19.3468 44.1493 19.2465 44.2686 19.1453C44.1423 18.9325 43.9451 18.8205 43.677 18.8091C43.4192 18.7841 43.1628 18.8135 42.9078 18.8972Z" fill="#4D9EFF"/>
<path d="M53.3827 13.944C53.3544 13.8924 53.3073 13.8532 53.2509 13.8354C53.1945 13.8176 53.1335 13.8226 53.0812 13.8495C53.0288 13.8764 52.9892 13.9231 52.9709 13.9793C52.9525 14.0355 52.9571 14.0966 52.9825 14.1497C53.3767 14.9709 53.8361 15.7619 54.3487 16.5178C57.5338 21.2555 63.5017 25.318 69.6244 23.4708C70.8008 23.1149 72.0106 22.5137 72.7897 21.3847C73.5865 20.2538 73.6333 18.7463 73.2275 17.5407C72.7928 16.2243 71.969 15.0933 70.8572 14.2696C69.8218 13.4638 67.9635 12.9267 66.7059 14.061C66.1314 14.5745 65.5718 15.0903 65.2483 15.9455C65.0948 16.353 65.0834 16.944 65.3186 17.3829C65.5537 17.8394 65.8891 18.1107 66.235 18.338C67.6173 19.1575 69.0524 19.3514 70.4633 19.5542C73.3028 19.8954 76.1343 19.877 78.9551 19.6407C79.8657 19.5494 80.7485 19.4753 81.6664 19.2073C81.7222 19.1885 81.7692 19.1492 81.7967 19.0968C81.8242 19.0444 81.8301 18.9835 81.8129 18.9273C81.7957 18.871 81.7568 18.8237 81.7047 18.7957C81.6526 18.7677 81.5917 18.7613 81.5349 18.7769C80.7133 18.9693 79.8063 19.0069 78.9165 19.0495C76.1337 19.144 73.3254 19.0428 70.5968 18.6231C69.2592 18.3978 67.8446 18.1106 66.8175 17.4525C66.3008 17.0953 66.1212 16.7576 66.2911 16.3136C66.4686 15.8443 66.9293 15.3656 67.4463 14.9314C68.9844 13.6765 71.4869 15.9082 72.085 17.9079C72.8538 19.9334 71.4244 21.8128 69.2866 22.371C63.9102 24.119 58.1733 20.6414 54.8307 16.1732C54.2973 15.4657 53.8106 14.7213 53.3827 13.944Z" fill="#4D9EFF"/>
<path d="M78.9097 16.6872C78.8776 16.6677 78.8394 16.6582 78.8016 16.6632C78.7638 16.6682 78.7297 16.687 78.7063 16.716C78.6829 16.745 78.6719 16.7823 78.675 16.8203C78.6782 16.8583 78.6956 16.8935 78.7215 16.9208C78.8093 17.0129 78.8989 17.1033 78.9903 17.1919C79.3068 17.4973 79.6352 17.7831 80.0025 18.0459C80.3831 18.3554 80.832 18.7435 81.272 19.0728C81.3033 19.0961 81.3194 19.1193 81.311 19.1087C81.3006 19.102 81.2885 19.0289 81.2949 19.0213C81.2959 19.0172 81.2941 19.0262 81.2844 19.05C81.2212 19.2227 80.981 19.4831 80.7763 19.7468L80.7679 19.757C80.3173 20.3529 79.926 20.9946 79.3716 21.4197C79.3725 21.4193 79.3715 21.4201 79.3704 21.4209C79.2748 21.4933 79.1684 21.566 79.0665 21.6449C79.0369 21.6679 79.0142 21.7001 79.0053 21.7372C78.9964 21.7743 79.0016 21.8128 79.0203 21.845C79.0389 21.8773 79.0698 21.901 79.1064 21.9117C79.143 21.9225 79.1821 21.9189 79.2169 21.9046C79.3305 21.8572 79.4459 21.8158 79.5665 21.7638C79.5678 21.7633 79.5691 21.7627 79.5704 21.7622C80.3379 21.4165 80.8552 20.795 81.3614 20.2272L81.353 20.2374C81.5649 19.9908 81.8269 19.791 82.0259 19.3492C82.0418 19.3099 82.0635 19.2545 82.0783 19.1836C82.1156 19.0396 82.0784 18.8192 81.9935 18.6943C81.9121 18.5644 81.8221 18.492 81.7415 18.4328C81.285 18.113 80.8703 17.8066 80.3372 17.4936C79.9712 17.3066 79.5982 17.0931 79.2299 16.8779C79.123 16.8152 79.0162 16.7516 78.9097 16.6872Z" fill="#4D9EFF"/>
</svg>
