<svg width="141" height="6" viewBox="0 0 141 6" fill="none" xmlns="http://www.w3.org/2000/svg">
<path d="M139.29 1.9962C139.505 1.73451 139.72 1.47283 139.884 1.25079C140.049 1.02876 140.156 0.854298 139.351 1.17876C136.757 2.22496 134.571 3.31653 133.703 3.20947C133.226 3.15056 133.051 2.36098 132.751 2.04642C132.303 1.57582 130.614 2.16802 127.197 3.0066C124.892 3.57228 122.361 3.45001 120.597 3.29736C119.018 3.16076 119.093 1.77681 118.715 1.64464C118.265 1.48776 117.414 1.68694 114.584 2.34247C112.279 2.87641 108.26 3.95753 106.076 4.49676C103.891 5.03599 103.676 5.03599 103.566 4.97057C102.832 4.53753 103.131 3.23194 102.806 2.87972C102.571 2.62516 102.153 2.65703 101.667 2.70064C100.847 2.77417 98.3711 3.44473 94.6859 4.30314C91.712 4.99584 89.6698 4.90383 88.6127 4.62033C87.3674 4.28638 87.3308 3.05484 87.0058 2.83479C86.7265 2.64562 84.0959 3.13679 79.4365 3.90731C77.2133 4.27497 75.2072 4.2853 74.0752 4.04674C72.4555 3.70543 72.3453 2.43896 71.6979 2.13035C71.2677 1.92534 70.4054 2.08344 68.8612 2.36759C67.3171 2.65174 65.0595 3.17512 63.2246 3.51015C57.8326 4.49468 55.6773 4.06723 55.2978 3.84849C54.1472 3.18535 54.2651 2.12969 53.8864 1.93145C53.4719 1.71447 52.6395 1.95127 50.8583 2.36693C49.5522 2.67173 47.4646 3.26235 45.8203 3.61985C43.0793 4.21579 41.4004 4.24301 40.5868 4.06855C38.823 3.69035 38.7389 1.82175 37.9538 1.55742C37.5625 1.4257 37.1149 1.46755 35.5496 1.9255C33.9842 2.38345 31.2966 3.29935 29.4821 3.85841C26.8427 4.67159 25.5452 4.77167 24.8944 4.72805C23.8551 4.65839 23.3723 3.27689 22.8576 2.7707C21.4223 1.35917 16.4839 2.92136 15.013 2.46143C14.2083 2.20981 13.762 1.60104 13.2473 1.38099C12.8146 1.19597 12.1348 1.29045 10.5157 1.6843C7.36686 2.45029 5.12914 3.09714 4.61442 3.03238C3.97362 2.95176 3.77067 2.30548 3.39197 2.21693C2.90575 2.30283 2.36008 2.43632 1.87224 2.52421C1.65316 2.56849 1.49191 2.6121 0.999992 2.65704" stroke="#4D9EFF" stroke-width="1.5" stroke-linecap="round"/>
</svg>
