<svg width="71" height="32" viewBox="0 0 71 32" fill="none" xmlns="http://www.w3.org/2000/svg">
<path d="M17.2762 14.8753C17.2463 14.9169 17.188 14.9519 17.1013 14.9803C17.0222 15.0003 16.9371 14.9806 16.846 14.9211C16.7796 14.8764 16.7013 14.8323 16.611 14.7889C16.5202 14.7374 16.4217 14.6903 16.3154 14.6476C16.2091 14.605 16.1032 14.5703 15.9978 14.5436C15.8923 14.5169 15.7916 14.506 15.6957 14.5108C15.5759 14.5169 15.4494 14.5514 15.3165 14.6142C15.1915 14.6766 15.0837 14.7622 14.993 14.8709C14.8194 15.0799 14.7614 15.2791 14.8191 15.4685C14.8843 15.6494 15.0328 15.8141 15.2647 15.9625C15.4137 16.0591 15.575 16.1591 15.7485 16.2624C15.9215 16.3578 16.0906 16.4533 16.2556 16.5491C16.4287 16.6445 16.5895 16.7364 16.7382 16.825C16.8949 16.9132 17.031 16.9904 17.1465 17.0567C17.2951 17.1452 17.4362 17.2422 17.5697 17.3476C17.7032 17.453 17.8216 17.5751 17.9248 17.7141C18.0275 17.8451 18.1113 17.997 18.1762 18.17C18.241 18.3429 18.2791 18.5412 18.2904 18.7649C18.2568 19.2072 18.0988 19.5677 17.8166 19.8463C17.5419 20.1166 17.2146 20.2974 16.8348 20.3887C16.5024 20.4696 16.1703 20.4745 15.8382 20.4032C15.5142 20.3315 15.234 20.1775 14.9978 19.9411C14.9386 19.8801 14.8862 19.7946 14.8406 19.6848C14.795 19.5749 14.7869 19.4953 14.8164 19.4457C14.8607 19.3714 14.9422 19.3192 15.0608 19.2891C15.1791 19.2511 15.2711 19.2504 15.3371 19.2871C15.5293 19.4456 15.7513 19.5585 16.0031 19.6258C16.2544 19.6852 16.5143 19.676 16.7827 19.5983C16.988 19.5399 17.1513 19.4435 17.2727 19.3092C17.3936 19.1669 17.4658 19.011 17.4893 18.8416C17.5203 18.6638 17.4872 18.4852 17.39 18.3059C17.3004 18.1182 17.1439 17.9539 16.9205 17.8131C16.5803 17.582 16.217 17.3681 15.8306 17.1714C15.4521 16.9743 15.0641 16.7457 14.6664 16.4855C14.4745 16.335 14.3298 16.1661 14.2322 15.9788C14.1425 15.7911 14.0931 15.6054 14.0838 15.4216C14.074 15.2299 14.1049 15.0481 14.1763 14.8762C14.2472 14.6964 14.3512 14.535 14.4881 14.3918C14.6247 14.2407 14.7866 14.1164 14.9739 14.0188C15.1612 13.9212 15.3703 13.8585 15.6012 13.8308C15.9199 13.7986 16.231 13.8509 16.5343 13.9877C16.8372 14.1165 17.086 14.2842 17.2807 14.4906C17.3231 14.5365 17.3421 14.5956 17.3378 14.6679C17.3414 14.7398 17.3209 14.8089 17.2762 14.8753ZM21.7263 15.5749C21.9704 15.6506 22.1769 15.7723 22.3456 15.94C22.5223 16.1073 22.6602 16.3005 22.7595 16.5198C22.8583 16.731 22.9176 16.9523 22.9373 17.1836C22.965 17.4145 22.952 17.6315 22.8982 17.8344C22.8216 18.0626 22.7209 18.288 22.596 18.5106C22.4712 18.7332 22.3251 18.9329 22.1578 19.1096C21.9905 19.2863 21.7977 19.4322 21.5792 19.5474C21.3608 19.6626 21.1157 19.7271 20.8441 19.7409C20.5165 19.7575 20.237 19.6956 20.0056 19.5551C19.7742 19.4146 19.5885 19.2278 19.4485 18.9946C19.3085 18.7614 19.2109 18.494 19.1555 18.1924C19.1082 17.8904 19.1008 17.5864 19.1333 17.2804C19.1539 17.055 19.1949 16.8367 19.2563 16.6253C19.3253 16.4055 19.4156 16.2127 19.5274 16.0468C19.6387 15.873 19.7676 15.7302 19.9142 15.6187C20.0687 15.5067 20.2458 15.4457 20.4456 15.4355C20.5574 15.4299 20.6985 15.4468 20.8687 15.4862C21.0385 15.5176 21.1973 15.5697 21.3452 15.6423C21.4442 15.5411 21.5712 15.5187 21.7263 15.5749ZM21.3152 16.4728C21.2245 16.4214 21.117 16.3547 20.9927 16.2729C20.876 16.1827 20.7737 16.1398 20.6858 16.1443C20.5899 16.1492 20.4963 16.198 20.4048 16.2907C20.3214 16.383 20.2468 16.491 20.1809 16.6145C20.1227 16.7296 20.0726 16.8482 20.0308 16.9705C19.9889 17.0928 19.9618 17.1903 19.9495 17.263C19.9316 17.3841 19.9229 17.5287 19.9234 17.6969C19.9239 17.8651 19.9444 18.0322 19.9849 18.1984C20.0249 18.3566 20.0924 18.5014 20.1871 18.6327C20.2895 18.7557 20.434 18.8405 20.6206 18.8871C20.734 18.9134 20.8659 18.9067 21.0161 18.8671C21.1658 18.8194 21.3102 18.744 21.4492 18.6408C21.5961 18.5373 21.7294 18.4023 21.8492 18.2361C21.9769 18.0694 22.0715 17.8804 22.1328 17.669C22.201 17.4332 22.1888 17.1935 22.0964 16.9499C22.0115 16.6979 21.8504 16.5218 21.613 16.4217C21.5591 16.4645 21.5042 16.4873 21.4483 16.4901C21.3923 16.493 21.348 16.4872 21.3152 16.4728ZM24.7496 13.9918C24.8337 14.8606 24.9474 15.76 25.0906 16.69C25.2335 17.6119 25.3823 18.4935 25.5371 19.3348C25.5789 19.6851 25.4921 19.8697 25.2768 19.8886C25.2289 19.8911 25.1801 19.8775 25.1306 19.848C25.0806 19.8105 25.0342 19.7648 24.9914 19.7109C24.9487 19.657 24.9057 19.5991 24.8625 19.5372C24.8273 19.4749 24.8045 19.42 24.7941 19.3724C24.7095 18.9682 24.6277 18.5398 24.5487 18.0872C24.4697 17.6346 24.3946 17.1818 24.3236 16.7289C24.2602 16.2675 24.2013 15.8179 24.1471 15.3801C24.0929 14.9422 24.0524 14.5398 24.0258 14.1727C24.0321 13.9801 24.0519 13.8189 24.0854 13.689C24.1185 13.5512 24.1991 13.483 24.3273 13.4845C24.4636 13.4856 24.5623 13.5367 24.6235 13.6377C24.6923 13.7303 24.7343 13.8484 24.7496 13.9918ZM27.3826 15.9249C27.3456 16.1431 27.3099 16.3852 27.2753 16.6513C27.2403 16.9094 27.2169 17.1589 27.2051 17.3998C27.2013 17.6403 27.2122 17.856 27.2379 18.047C27.2716 18.2375 27.3304 18.3707 27.4144 18.4466C27.5514 18.4637 27.7044 18.3998 27.8732 18.2551C28.0417 18.1024 28.2044 17.9139 28.3612 17.6897C28.5181 17.4654 28.6582 17.226 28.7814 16.9715C28.9043 16.7089 28.9888 16.4803 29.035 16.2857C29.0621 16.1882 29.085 16.087 29.1037 15.9819C29.1224 15.8768 29.129 15.7683 29.1233 15.6565C29.12 15.5926 29.157 15.5306 29.234 15.4706C29.3187 15.4023 29.3887 15.3627 29.4443 15.3518C29.4838 15.3418 29.5282 15.3476 29.5773 15.3691C29.6345 15.3902 29.6842 15.4238 29.7266 15.4697C29.7766 15.5072 29.8191 15.5571 29.8543 15.6194C29.8971 15.6733 29.9201 15.7322 29.9234 15.7961C29.9515 16.035 29.9888 16.2975 30.0354 16.5835C30.0819 16.8695 30.1325 17.1553 30.187 17.4409C30.2495 17.7261 30.3116 18.0033 30.3733 18.2725C30.435 18.5418 30.4953 18.783 30.5542 18.9963C30.5826 19.083 30.5637 19.1841 30.4975 19.2996C30.4313 19.4151 30.3548 19.487 30.2681 19.5155C30.197 19.5351 30.1207 19.5309 30.0392 19.503C29.9657 19.4747 29.9065 19.4136 29.8617 19.3198C29.8161 19.2099 29.7693 19.0761 29.7212 18.9184C29.6807 18.7522 29.6401 18.5821 29.5992 18.4079C29.5659 18.2254 29.5332 18.0548 29.5012 17.8962C29.4687 17.7296 29.4456 17.5906 29.432 17.4792C29.3231 17.701 29.1904 17.928 29.0339 18.1602C28.8851 18.384 28.7194 18.5927 28.537 18.7862C28.3621 18.9713 28.1735 19.121 27.971 19.2354C27.7761 19.3414 27.5702 19.3879 27.3533 19.3749C27.0317 19.3511 26.7728 19.0638 26.5766 18.5131C26.5014 18.2926 26.4569 18.0465 26.4431 17.7749C26.4373 17.5028 26.4437 17.2342 26.4623 16.9689C26.4885 16.6952 26.5195 16.4373 26.5553 16.1952C26.599 15.9527 26.6371 15.7545 26.6693 15.6006C26.682 15.5359 26.7112 15.4784 26.7567 15.428C26.8018 15.3696 26.8567 15.3468 26.9214 15.3596C27.0425 15.3775 27.154 15.4439 27.2559 15.5589C27.3659 15.6735 27.4081 15.7955 27.3826 15.9249ZM34.005 15.9256C34.1564 15.91 34.3101 15.9382 34.4659 16.0104C34.6218 16.0826 34.704 16.2026 34.7125 16.3704C34.7034 16.507 34.6319 16.5988 34.4981 16.6456C34.3719 16.684 34.2689 16.7053 34.189 16.7093C34.0292 16.7174 33.8576 16.7301 33.6742 16.7475C33.4909 16.7648 33.3037 16.7863 33.1128 16.812C33.1102 17.0764 33.1067 17.3249 33.1025 17.5574C33.1063 17.7895 33.1088 17.9977 33.1101 18.1819C33.1111 18.358 33.1143 18.502 33.12 18.6139C33.1257 18.7258 33.1327 18.7855 33.1411 18.7931C33.3153 18.7522 33.5004 18.6907 33.6965 18.6087C33.9002 18.5183 34.0997 18.4241 34.295 18.326C34.4978 18.2196 34.6927 18.1136 34.8796 18.008C35.0741 17.894 35.257 17.7887 35.4283 17.6919C35.5062 17.6479 35.5775 17.6322 35.6422 17.645C35.7149 17.6573 35.7607 17.691 35.7795 17.7461C35.7999 17.8332 35.7934 17.9417 35.7599 18.0715C35.7265 18.2014 35.6604 18.3209 35.5618 18.43C35.4469 18.532 35.2927 18.6519 35.0995 18.7899C34.9138 18.9195 34.7119 19.0459 34.4939 19.1691C34.2758 19.2923 34.0532 19.4037 33.826 19.5033C33.6063 19.5945 33.409 19.6526 33.234 19.6775C32.9716 19.7148 32.7682 19.6531 32.6238 19.4922C32.4795 19.3313 32.3929 19.1234 32.3639 18.8685C32.335 18.6137 32.316 18.3182 32.307 17.9823C32.306 17.6459 32.3039 17.2895 32.3009 16.9132C32.1499 16.9369 32.0029 16.9603 31.8599 16.9836C31.7244 16.9985 31.5932 17.0172 31.4662 17.0396C31.3623 17.0449 31.2453 17.0268 31.115 16.9853C30.9927 16.9435 30.9281 16.8546 30.9212 16.7188C30.9188 16.6709 30.9356 16.6059 30.9715 16.524C31.0073 16.4421 31.0922 16.3777 31.226 16.3309C31.5507 16.2583 31.9118 16.192 32.3093 16.1318C32.3142 15.755 32.3238 15.3901 32.3379 15.0369C32.352 14.6837 32.3638 14.3627 32.3732 14.0739C32.3763 13.9776 32.4 13.8923 32.4443 13.818C32.4886 13.7436 32.5387 13.705 32.5947 13.7022C32.7301 13.6873 32.8597 13.7168 32.9836 13.7906C33.1151 13.856 33.1833 13.9367 33.1882 14.0326C33.17 14.3058 33.1536 14.6151 33.1391 14.9603C33.1325 15.305 33.1264 15.6578 33.1206 16.0185C33.2796 15.9945 33.431 15.9788 33.5748 15.9715C33.7262 15.9558 33.8696 15.9405 34.005 15.9256ZM38.105 14.0356C38.0931 14.1163 38.0394 14.1631 37.9439 14.176C37.8485 14.1888 37.7688 14.1969 37.7049 14.2001C37.5055 14.2182 37.2988 14.2487 37.0847 14.2916C36.8786 14.3341 36.6613 14.3932 36.4328 14.4689C36.3386 14.5057 36.2341 14.499 36.1194 14.4487C36.0047 14.3984 35.9311 14.29 35.8987 14.1235C35.8954 14.0595 35.9168 14.0064 35.9627 13.964C36.0086 13.9216 36.0627 13.8828 36.125 13.8476C36.2264 13.7944 36.3482 13.7482 36.4904 13.709C36.6322 13.6617 36.7746 13.6265 36.9176 13.6032C37.0686 13.5795 37.2122 13.5682 37.3485 13.5693C37.4843 13.5625 37.5968 13.5688 37.6859 13.5883C37.8157 13.6218 37.9186 13.6766 37.9946 13.7529C38.0785 13.8287 38.1154 13.923 38.105 14.0356ZM38.0317 18.0405C38.0941 18.1655 38.1292 18.3039 38.1369 18.4557C38.1522 18.5991 38.1173 18.701 38.0322 18.7614C37.924 18.839 37.804 18.841 37.6721 18.7676C37.5402 18.6942 37.4388 18.5912 37.368 18.4586C37.2717 18.2953 37.1934 18.095 37.1333 17.8577C37.0728 17.6125 37.0245 17.3706 36.9884 17.1321C36.9523 16.8937 36.925 16.6708 36.9064 16.4634C36.8959 16.2557 36.888 16.0999 36.8827 15.996C36.8851 15.8838 36.9118 15.7783 36.9628 15.6796C37.0139 15.5809 37.083 15.5213 37.17 15.5009C37.3143 15.5016 37.4336 15.5636 37.5279 15.687C37.6219 15.8024 37.6695 15.9521 37.6709 16.1363C37.6781 16.2801 37.6902 16.4397 37.7071 16.6151C37.724 16.7905 37.7489 16.9654 37.7818 17.14C37.8147 17.3145 37.8514 17.4849 37.8918 17.6511C37.9319 17.8092 37.9785 17.939 38.0317 18.0405ZM41.7865 14.5579C42.0306 14.6336 42.237 14.7554 42.4057 14.923C42.5824 15.0903 42.7204 15.2836 42.8196 15.5028C42.9185 15.7141 42.9777 15.9354 42.9975 16.1667C43.0252 16.3976 43.0122 16.6145 42.9584 16.8175C42.8818 17.0456 42.7811 17.271 42.6562 17.4936C42.5313 17.7163 42.3853 17.9159 42.218 18.0926C42.0507 18.2693 41.8579 18.4152 41.6394 18.5305C41.421 18.6457 41.1759 18.7102 40.9043 18.7239C40.5767 18.7405 40.2972 18.6786 40.0658 18.5381C39.8344 18.3977 39.6487 18.2108 39.5087 17.9776C39.3687 17.7444 39.271 17.477 39.2157 17.1754C39.1683 16.8734 39.1609 16.5694 39.1935 16.2634C39.2141 16.0381 39.2551 15.8197 39.3165 15.6083C39.3854 15.3885 39.4758 15.1957 39.5875 15.0299C39.6989 14.856 39.8278 14.7133 39.9744 14.6017C40.1289 14.4898 40.306 14.4287 40.5058 14.4186C40.6176 14.4129 40.7587 14.4298 40.9289 14.4692C41.0987 14.5007 41.2575 14.5527 41.4054 14.6253C41.5044 14.5242 41.6314 14.5017 41.7865 14.5579ZM41.3754 15.4559C41.2847 15.4044 41.1772 15.3378 41.0529 15.256C40.9361 15.1657 40.8338 15.1229 40.746 15.1273C40.6501 15.1322 40.5564 15.181 40.465 15.2737C40.3816 15.3661 40.3069 15.474 40.2411 15.5975C40.1829 15.7126 40.1328 15.8313 40.091 15.9535C40.0491 16.0758 40.022 16.1733 40.0097 16.246C39.9918 16.3671 39.9831 16.5117 39.9836 16.6799C39.9841 16.8481 40.0046 17.0153 40.0451 17.1814C40.0851 17.3396 40.1525 17.4844 40.2473 17.6158C40.3497 17.7387 40.4941 17.8235 40.6807 17.8701C40.7942 17.8964 40.9261 17.8898 41.0762 17.8501C41.226 17.8025 41.3704 17.727 41.5093 17.6239C41.6563 17.5203 41.7896 17.3854 41.9094 17.2191C42.0371 17.0524 42.1316 16.8634 42.193 16.652C42.2612 16.4163 42.249 16.1766 42.1566 15.9329C42.0717 15.6809 41.9106 15.5048 41.6732 15.4047C41.6193 15.4475 41.5644 15.4703 41.5084 15.4732C41.4525 15.476 41.4082 15.4702 41.3754 15.4559ZM44.6539 14.6408C44.6839 14.7595 44.7148 14.8941 44.7465 15.0447C44.7857 15.1869 44.8254 15.3371 44.8654 15.4952C44.9051 15.6454 44.941 15.7998 44.973 15.9584C45.0051 16.117 45.0328 16.2677 45.056 16.4107C45.1414 16.1982 45.2341 15.9732 45.3342 15.7358C45.4343 15.4984 45.5434 15.2806 45.6616 15.0824C45.7873 14.8758 45.9188 14.7049 46.0561 14.5698C46.2014 14.4342 46.362 14.362 46.5378 14.3531C46.8014 14.3397 47.026 14.4245 47.2115 14.6073C47.405 14.7897 47.5689 15.0217 47.7034 15.3033C47.8454 15.5765 47.9602 15.867 48.0479 16.175C48.1356 16.4829 48.2095 16.7555 48.2696 16.9928C48.3285 17.2061 48.2407 17.3707 48.0063 17.4868C47.8973 17.5484 47.8138 17.5606 47.7558 17.5235C47.6979 17.4864 47.6639 17.448 47.6539 17.4085C47.6091 17.3146 47.5486 17.1495 47.4726 16.913C47.4045 16.6762 47.3242 16.4359 47.2318 16.1923C47.1473 15.9483 47.0525 15.7368 46.9473 15.5579C46.8421 15.379 46.73 15.3006 46.6109 15.3226C46.4675 15.3379 46.3452 15.4523 46.2438 15.6657C46.1565 15.8383 46.0661 16.0311 45.9728 16.2441C45.887 16.4487 45.8017 16.6613 45.7167 16.8819C45.6314 17.0945 45.5462 17.3111 45.4613 17.5317C45.3839 17.7439 45.3098 17.9399 45.2388 18.1197C45.1857 18.1785 45.1158 18.222 45.0291 18.2505C44.9501 18.2705 44.8658 18.2668 44.7763 18.2393C44.6951 18.2193 44.6292 18.1826 44.5784 18.1291C44.5276 18.0756 44.5008 18.0209 44.498 17.965C44.3945 17.3454 44.2898 16.782 44.184 16.2747C44.0862 15.767 43.9638 15.2486 43.8168 14.7193C43.7516 14.5384 43.7323 14.3952 43.759 14.2897C43.7933 14.1758 43.9109 14.1258 44.1118 14.1396C44.3939 14.1734 44.5746 14.3405 44.6539 14.6408ZM53.0955 12.8551C53.1053 13.0469 53.1122 13.2628 53.1164 13.5029C53.1285 13.7426 53.1411 13.9903 53.154 14.246C53.175 14.5012 53.1923 14.7647 53.2061 15.0363C53.2279 15.3076 53.249 15.5669 53.2696 15.8141C53.3414 15.6503 53.4294 15.4896 53.5335 15.3321C53.6373 15.1667 53.754 15.0206 53.8838 14.8938C54.0215 14.7667 54.1645 14.6633 54.3126 14.5837C54.4688 14.5037 54.6387 14.4591 54.8225 14.4498C55.0222 14.4396 55.2012 14.4946 55.3595 14.6148C55.5258 14.7345 55.6703 14.8994 55.7931 15.1095C55.9235 15.3111 56.0353 15.5417 56.1286 15.8014C56.2215 16.053 56.2987 16.3134 56.3605 16.5826C56.4297 16.8434 56.4827 17.0971 56.5192 17.3436C56.5553 17.582 56.5858 17.7888 56.6107 17.9637C56.6172 18.0916 56.5905 18.197 56.5306 18.2802C56.4708 18.3633 56.3969 18.4071 56.309 18.4116C56.2451 18.4148 56.1631 18.3789 56.0632 18.3039C55.9709 18.2204 55.9017 18.1198 55.8557 18.002C55.8268 17.9073 55.7958 17.7687 55.7625 17.5862C55.7292 17.4036 55.6913 17.2093 55.6488 17.0032C55.6059 16.7891 55.5551 16.5754 55.4962 16.3621C55.4373 16.1488 55.3677 15.9601 55.2872 15.7959C55.2144 15.6234 55.1276 15.4916 55.0269 15.4006C54.9262 15.3096 54.8125 15.2793 54.6859 15.3098C54.4881 15.3598 54.3195 15.5086 54.1798 15.756C54.0481 16.003 53.9341 16.2811 53.8376 16.5904C53.7491 16.8992 53.6768 17.2113 53.6207 17.5265C53.5726 17.8414 53.5374 18.0955 53.5152 18.2889C53.4905 18.4343 53.4516 18.5364 53.3985 18.5952C53.353 18.6455 53.2983 18.6723 53.2344 18.6756C53.1705 18.6788 53.1089 18.6499 53.0498 18.5888C52.9986 18.5273 52.9468 18.4539 52.8944 18.3684C52.8496 18.2745 52.8088 18.1805 52.772 18.0862C52.7348 17.984 52.7103 17.8971 52.6987 17.8256C52.6369 17.3962 52.584 16.9863 52.5402 16.5961C52.496 16.1978 52.4558 15.7993 52.4196 15.4006C52.3913 15.0016 52.3667 14.5943 52.3456 14.1788C52.3241 13.7554 52.3092 13.3035 52.3009 12.8233C52.2807 12.4238 52.4154 12.2368 52.705 12.2622C52.8017 12.2733 52.8892 12.3409 52.9676 12.4651C53.0456 12.5813 53.0882 12.7113 53.0955 12.8551ZM60.2339 14.9925C59.9317 15.192 59.6034 15.3529 59.2491 15.4749C58.8944 15.589 58.5094 15.6566 58.0939 15.6777C58.124 15.9565 58.2153 16.1762 58.3676 16.3367C58.5195 16.4892 58.7042 16.5759 58.9215 16.597C59.0501 16.6065 59.1778 16.596 59.3044 16.5655C59.439 16.5347 59.561 16.4925 59.6704 16.4388C59.7875 16.3768 59.8923 16.3115 59.9849 16.2427C60.0776 16.1739 60.1582 16.1057 60.2269 16.0382C60.2955 15.9706 60.3694 15.9268 60.4485 15.9068C60.5272 15.8788 60.5869 15.8717 60.6277 15.8857C60.7416 15.92 60.7876 16.0378 60.7657 16.2391C60.6509 16.5013 60.4782 16.7303 60.2479 16.9262C60.0171 17.1142 59.7551 17.2396 59.4619 17.3025C59.2087 17.3634 58.9444 17.3648 58.6691 17.3067C58.3938 17.2485 58.143 17.1211 57.9168 16.9243C57.7237 16.7498 57.5729 16.5412 57.4645 16.2984C57.3561 16.0555 57.2832 15.8029 57.2459 15.5405C57.2093 15.294 57.2174 15.0573 57.2699 14.8303C57.3305 14.603 57.4284 14.4017 57.5637 14.2267C57.6986 14.0436 57.8711 13.8907 58.0812 13.7679C58.2912 13.6451 58.5397 13.5684 58.8265 13.5379C59.1688 13.4965 59.4837 13.5446 59.771 13.6822C60.0583 13.8198 60.2648 14.0217 60.3905 14.2876C60.4621 14.4362 60.4847 14.5672 60.4584 14.6807C60.4401 14.7938 60.3653 14.8977 60.2339 14.9925ZM58.8144 14.2474C58.7353 14.2674 58.6488 14.2998 58.555 14.3446C58.4691 14.389 58.3879 14.4452 58.3112 14.5132C58.2421 14.5728 58.1777 14.6441 58.1178 14.7273C58.0655 14.802 58.0378 14.8875 58.0347 14.9838C58.1705 14.9769 58.3177 14.9574 58.4763 14.9254C58.6429 14.8929 58.8012 14.8568 58.9514 14.8172C59.1092 14.7691 59.2508 14.7179 59.3762 14.6635C59.5096 14.6086 59.6188 14.551 59.7039 14.4907C59.6322 14.3421 59.5077 14.2563 59.3303 14.2332C59.1605 14.2018 58.9885 14.2065 58.8144 14.2474ZM65.0519 13.4265C64.9121 13.5137 64.7645 13.6053 64.6092 13.7013C64.4619 13.7969 64.3113 13.9086 64.1576 14.0366C64.0115 14.1561 63.8705 14.2994 63.7348 14.4665C63.6067 14.6252 63.4922 14.8153 63.3913 15.0367C63.2469 15.3484 63.1548 15.6654 63.1151 15.9879C63.0749 16.3023 63.0546 16.6117 63.054 16.9161C63.0613 17.06 63.0328 17.2096 62.9686 17.365C62.912 17.5121 62.8237 17.5887 62.7039 17.5947C62.5521 17.6024 62.4244 17.5328 62.3208 17.3859C62.2248 17.2305 62.1572 17.0818 62.118 16.9396C61.9534 16.3792 61.8132 15.8256 61.6973 15.2787C61.5811 14.7239 61.477 14.1725 61.3852 13.6244C61.3795 13.5126 61.4078 13.439 61.4701 13.4038C61.5404 13.3682 61.6197 13.3522 61.708 13.3557C61.8043 13.3589 61.8974 13.3782 61.9873 13.4137C62.0772 13.4492 62.1324 13.5104 62.1528 13.5975C62.1998 13.8915 62.2555 14.2011 62.32 14.5262C62.3842 14.8434 62.4461 15.1166 62.5058 15.3459C62.524 15.0726 62.5985 14.8045 62.7293 14.5415C62.8602 14.2786 63.0242 14.038 63.2214 13.8197C63.4266 13.601 63.6574 13.4131 63.9138 13.2559C64.1781 13.0983 64.4489 12.9885 64.7261 12.9264C64.8452 12.9043 64.945 12.8993 65.0257 12.9112C65.1064 12.9231 65.1638 12.9482 65.1978 12.9866C65.2318 13.0249 65.239 13.0886 65.2195 13.1777C65.208 13.2664 65.1521 13.3493 65.0519 13.4265ZM68.7425 14.5611C68.4403 14.7607 68.112 14.9215 67.7577 15.0436C67.403 15.1577 67.018 15.2253 66.6025 15.2463C66.6326 15.5252 66.7239 15.7448 66.8762 15.9053C67.0281 16.0578 67.2128 16.1446 67.4301 16.1656C67.5587 16.1751 67.6864 16.1646 67.813 16.1342C67.9476 16.1033 68.0696 16.0611 68.1791 16.0075C68.2961 15.9455 68.4009 15.8801 68.4935 15.8113C68.5862 15.7425 68.6668 15.6744 68.7355 15.6068C68.8041 15.5392 68.878 15.4955 68.9571 15.4754C69.0358 15.4474 69.0955 15.4404 69.1363 15.4543C69.2502 15.4886 69.2962 15.6064 69.2743 15.8078C69.1595 16.0699 68.9868 16.299 68.7565 16.4949C68.5257 16.6828 68.2637 16.8082 67.9705 16.8712C67.7173 16.9321 67.453 16.9334 67.1777 16.8753C66.9024 16.8172 66.6516 16.6897 66.4254 16.4929C66.2323 16.3185 66.0815 16.1098 65.9731 15.867C65.8647 15.6242 65.7918 15.3716 65.7545 15.1091C65.7179 14.8626 65.726 14.6259 65.7785 14.399C65.8391 14.1716 65.937 13.9704 66.0723 13.7953C66.2073 13.6123 66.3797 13.4593 66.5898 13.3365C66.7998 13.2137 67.0483 13.1371 67.3351 13.1065C67.6774 13.0651 67.9923 13.1132 68.2796 13.2509C68.5669 13.3885 68.7734 13.5903 68.8991 13.8563C68.9707 14.0048 68.9933 14.1359 68.967 14.2493C68.9487 14.3624 68.8739 14.4663 68.7425 14.5611ZM67.323 13.816C67.2439 13.8361 67.1574 13.8685 67.0636 13.9133C66.9777 13.9577 66.8965 14.0139 66.8198 14.0818C66.7507 14.1414 66.6863 14.2128 66.6264 14.2959C66.5741 14.3707 66.5464 14.4562 66.5433 14.5525C66.6791 14.5456 66.8263 14.5261 66.9849 14.494C67.1515 14.4615 67.3098 14.4255 67.46 14.3858C67.6178 14.3378 67.7594 14.2865 67.8848 14.2321C68.0182 14.1773 68.1274 14.1197 68.2125 14.0593C68.1408 13.9107 68.0163 13.8249 67.8389 13.8019C67.6691 13.7704 67.4972 13.7752 67.323 13.816Z" fill="#4D9EFF"/>
<path d="M1.67504 24.7813C1.67043 24.8196 1.67934 24.8588 1.70158 24.8908C1.72382 24.9227 1.7573 24.9447 1.79503 24.9519C1.83275 24.9592 1.87199 24.9512 1.90447 24.9297C1.93697 24.9083 1.95977 24.8752 1.96966 24.8379C1.96966 24.8379 1.96966 24.8379 1.96966 24.8379C2.03092 24.6076 2.10089 24.3863 2.18164 24.1651C2.9006 22.1722 4.44596 20.6395 6.24295 19.5981C8.04834 18.5534 10.1039 17.9145 12.221 17.6797C12.456 17.6544 12.694 17.6348 12.9297 17.6212C12.9682 17.619 13.0052 17.6033 13.0327 17.5758C13.0603 17.5483 13.076 17.5115 13.0765 17.4731C13.077 17.4347 13.0622 17.3974 13.0354 17.3692C13.0086 17.341 12.972 17.3244 12.9336 17.3212C12.9336 17.3212 12.9336 17.3212 12.9336 17.3212C12.6925 17.3014 12.4473 17.2895 12.2038 17.2851C10.0086 17.2521 7.77604 17.7855 5.83989 18.9071C3.91226 20.0113 2.28603 21.8614 1.80274 24.0534C1.74711 24.2956 1.70539 24.5352 1.67504 24.7813Z" fill="#4D9EFF"/>
<path d="M4.07795 24.3567C4.1086 24.3362 4.13391 24.307 4.14668 24.2717C4.15946 24.2365 4.15884 24.1984 4.14453 24.165C4.13022 24.1316 4.10312 24.105 4.06878 24.0899C4.03442 24.0748 3.99581 24.073 3.95981 24.081C3.95981 24.081 3.95981 24.081 3.95981 24.081C3.86957 24.1015 3.77984 24.1241 3.69068 24.1486C3.38252 24.2343 3.08455 24.3361 2.78457 24.4759C2.47061 24.5944 2.06079 24.7474 1.70358 24.9132C1.68601 24.9214 1.67688 24.9179 1.70986 24.9142C1.74023 24.9066 1.83048 24.9368 1.84911 24.9589C1.85969 24.9678 1.85907 24.9692 1.84874 24.9569C1.78488 24.8933 1.69159 24.6519 1.59057 24.4329L1.58547 24.4207C1.35185 23.9393 1.06559 23.4893 0.9585 23.0153C0.958398 23.0167 0.958205 23.0158 0.958013 23.0149C0.940104 22.9316 0.92534 22.8387 0.90479 22.7469C0.896647 22.7109 0.878497 22.6768 0.850157 22.6522C0.821846 22.6275 0.78614 22.6145 0.749837 22.6158C0.713535 22.6171 0.678894 22.6328 0.65248 22.6595C0.626036 22.6861 0.610457 22.7215 0.604996 22.758C0.604996 22.758 0.604996 22.758 0.604996 22.758C0.592041 22.8454 0.575017 22.9316 0.563211 23.0274C0.563081 23.0284 0.562951 23.0294 0.562822 23.0305C0.499841 23.6555 0.709253 24.2073 0.891958 24.7247L0.886858 24.7125C0.969375 24.9297 0.999001 25.162 1.23684 25.4716C1.25797 25.4968 1.29029 25.5347 1.33861 25.5749C1.43337 25.6624 1.62555 25.7263 1.75606 25.7113C1.88928 25.7015 1.97654 25.6628 2.04899 25.6278C2.40542 25.4431 2.72706 25.282 3.11567 25.0304C3.34799 24.8562 3.60301 24.6811 3.85572 24.5075C3.92935 24.4571 4.00341 24.4068 4.07795 24.3567Z" fill="#4D9EFF"/>
</svg>
