<svg width="24" height="24" viewBox="0 0 24 24" fill="none" xmlns="http://www.w3.org/2000/svg">
<path fill-rule="evenodd" clip-rule="evenodd" d="M19.5849 12L17.6888 10.1041L20.5329 7.25878C20.7891 7.01141 20.9934 6.7155 21.1339 6.38832C21.2745 6.06115 21.3485 5.70926 21.3516 5.35318C21.3546 4.99711 21.2868 4.64399 21.1519 4.31442C21.0171 3.98485 20.818 3.68544 20.5662 3.43365C20.3144 3.18185 20.0149 2.98273 19.6853 2.84789C19.3558 2.71306 19.0026 2.64521 18.6465 2.6483C18.2904 2.65139 17.9385 2.72537 17.6113 2.86592C17.2841 3.00646 16.9882 3.21076 16.7408 3.46688L11.0513 9.15608C10.5485 9.65897 10.2661 10.3409 10.2661 11.052C10.2661 11.7631 10.5485 12.4451 11.0513 12.948L9.15525 14.8439C8.65715 14.3459 8.26205 13.7546 7.99248 13.1039C7.72291 12.4532 7.58417 11.7557 7.58417 11.0514C7.58417 10.347 7.72291 9.64955 7.99248 8.99882C8.26205 8.34809 8.65715 7.75682 9.15525 7.25878L14.8434 1.57093C15.8493 0.565082 17.2136 0 18.6362 0C19.3406 0 20.0381 0.138731 20.6888 0.408273C21.3396 0.677814 21.9309 1.07289 22.429 1.57093C22.9271 2.06898 23.3221 2.66025 23.5917 3.31098C23.8613 3.96171 24 4.65916 24 5.36351C24 6.06785 23.8613 6.7653 23.5917 7.41603C23.3221 8.06676 22.9271 8.65803 22.429 9.15608L19.5849 12ZM4.41377 12L6.30982 13.896L3.46574 16.7412C3.2096 16.9886 3.00529 17.2845 2.86473 17.6117C2.72418 17.9389 2.6502 18.2907 2.64711 18.6468C2.64401 19.0029 2.71187 19.356 2.84671 19.6856C2.98156 20.0152 3.18069 20.3146 3.4325 20.5664C3.6843 20.8181 3.98373 21.0173 4.31332 21.1521C4.64291 21.2869 4.99605 21.3548 5.35214 21.3517C5.70823 21.3486 6.06014 21.2746 6.38734 21.1341C6.71453 20.9935 7.01046 20.7892 7.25785 20.5331L12.9474 14.8439C13.4501 14.341 13.7326 13.6591 13.7326 12.948C13.7326 12.2369 13.4501 11.5549 12.9474 11.052L14.8434 9.15608C15.3415 9.65411 15.7366 10.2454 16.0062 10.8961C16.2757 11.5468 16.4145 12.2443 16.4145 12.9486C16.4145 13.653 16.2757 14.3505 16.0062 15.0012C15.7366 15.6519 15.3415 16.2432 14.8434 16.7412L9.15659 22.4291C8.65851 22.9271 8.06721 23.3222 7.41644 23.5917C6.76568 23.8613 6.06819 24 5.3638 24C4.65942 24 3.96193 23.8613 3.31117 23.5917C2.6604 23.3222 2.0691 22.9271 1.57102 22.4291C0.565114 21.4232 0 20.059 0 18.6365C0 17.214 0.565114 15.8498 1.57102 14.8439L4.41377 12Z" fill="white"/>
</svg>
