<svg width="30" height="24" viewBox="0 0 30 24" fill="none" xmlns="http://www.w3.org/2000/svg">
<path d="M13.6276 15.4721H8.71885C8.42836 15.4721 8.19312 15.7034 8.19312 15.9891V23.4831C8.19312 23.7687 8.42836 24 8.71885 24H13.6276C13.9181 24 14.153 23.7687 14.153 23.4831V15.9887C14.153 15.7031 13.9178 15.4721 13.6276 15.4721ZM21.2815 0H16.3727C16.0822 0 15.847 0.231305 15.847 0.516934V23.4827C15.847 23.7684 16.0822 23.9997 16.3727 23.9997H21.2815C21.572 23.9997 21.8072 23.7684 21.8072 23.4827V0.516934C21.8072 0.231305 21.572 0 21.2815 0ZM28.9746 6.97707H24.0658C23.7753 6.97707 23.5401 7.20837 23.5401 7.494V23.4827C23.5401 23.7684 23.7753 23.9997 24.0658 23.9997H28.9743C29.2648 23.9997 29.5 23.7684 29.5 23.4827V7.494C29.5 7.20871 29.2648 6.97707 28.9746 6.97707ZM5.93452 6.97707H1.02573C0.735241 6.97707 0.5 7.20837 0.5 7.494V23.4827C0.5 23.7684 0.735241 23.9997 1.02573 23.9997H5.93452C6.22501 23.9997 6.46026 23.7684 6.46026 23.4827V7.494C6.46026 7.20871 6.22501 6.97707 5.93452 6.97707Z" fill="white"/>
</svg>
