<svg width="33" height="24" viewBox="0 0 33 24" fill="none" xmlns="http://www.w3.org/2000/svg">
<path d="M27.845 0.026C29.076 0.152719 30.2162 0.731426 31.0452 1.6502C31.8742 2.56896 32.3331 3.76251 32.333 5V19C32.333 20.3261 31.8062 21.5979 30.8685 22.5355C29.9309 23.4732 28.6591 24 27.333 24H5.33301C4.00693 24 2.73516 23.4732 1.79747 22.5355C0.859792 21.5979 0.333008 20.3261 0.333008 19V5C0.333008 3.67392 0.859792 2.40215 1.79747 1.46447C2.73516 0.526784 4.00693 0 5.33301 0H27.333L27.845 0.026ZM5.33301 2C4.53736 2 3.7743 2.31607 3.21169 2.87868C2.64908 3.44129 2.33301 4.20435 2.33301 5V19C2.33301 19.7956 2.64908 20.5587 3.21169 21.1213C3.7743 21.6839 4.53736 22 5.33301 22H27.333C28.1287 22 28.8917 21.6839 29.4543 21.1213C30.0169 20.5587 30.333 19.7956 30.333 19V5C30.3329 4.25739 30.0574 3.5412 29.5598 2.99C29.0621 2.43879 28.3777 2.09175 27.639 2.016L27.333 2H5.33301ZM14.333 6C14.8634 6 15.3721 6.21071 15.7472 6.58579C16.1223 6.96086 16.333 7.46957 16.333 8V16C16.333 16.5304 16.1223 17.0391 15.7472 17.4142C15.3721 17.7893 14.8634 18 14.333 18H8.33301C7.80257 18 7.29387 17.7893 6.91879 17.4142C6.54372 17.0391 6.33301 16.5304 6.33301 16V8C6.33301 7.46957 6.54372 6.96086 6.91879 6.58579C7.29387 6.21071 7.80257 6 8.33301 6H14.333ZM25.333 16C25.5982 16 25.8526 16.1054 26.0401 16.2929C26.2277 16.4804 26.333 16.7348 26.333 17C26.333 17.2652 26.2277 17.5196 26.0401 17.7071C25.8526 17.8946 25.5982 18 25.333 18H19.333C19.0678 18 18.8134 17.8946 18.6259 17.7071C18.4384 17.5196 18.333 17.2652 18.333 17C18.333 16.7348 18.4384 16.4804 18.6259 16.2929C18.8134 16.1054 19.0678 16 19.333 16H25.333ZM25.333 11C25.5982 11 25.8526 11.1054 26.0401 11.2929C26.2277 11.4804 26.333 11.7348 26.333 12C26.333 12.2652 26.2277 12.5196 26.0401 12.7071C25.8526 12.8946 25.5982 13 25.333 13H19.333C19.0678 13 18.8134 12.8946 18.6259 12.7071C18.4384 12.5196 18.333 12.2652 18.333 12C18.333 11.7348 18.4384 11.4804 18.6259 11.2929C18.8134 11.1054 19.0678 11 19.333 11H25.333ZM25.333 6C25.5982 6 25.8526 6.10536 26.0401 6.29289C26.2277 6.48043 26.333 6.73478 26.333 7C26.333 7.26522 26.2277 7.51957 26.0401 7.70711C25.8526 7.89464 25.5982 8 25.333 8H19.333C19.0678 8 18.8134 7.89464 18.6259 7.70711C18.4384 7.51957 18.333 7.26522 18.333 7C18.333 6.73478 18.4384 6.48043 18.6259 6.29289C18.8134 6.10536 19.0678 6 19.333 6H25.333Z" fill="white"/>
</svg>
