<svg width="30" height="24" viewBox="0 0 30 24" fill="none" xmlns="http://www.w3.org/2000/svg">
<path d="M3.3 24H26.7C28.8374 21.3788 30.0016 18.1184 30 14.7579C30 6.6226 23.2875 0 15 0C6.7125 0 0 6.6226 0 14.7579C0 18.2629 1.2375 21.4543 3.3 24ZM13.125 3.68947C13.125 2.67487 13.9688 1.84473 15 1.84473C16.0312 1.84473 16.875 2.67487 16.875 3.68947C16.875 4.72252 16.0312 5.5342 15 5.5342C13.9688 5.5342 13.125 4.72252 13.125 3.68947ZM3.75 7.37894C3.75 6.36434 4.59375 5.5342 5.625 5.5342C6.65625 5.5342 7.5 6.36434 7.5 7.37894C7.5 8.41199 6.65625 9.22367 5.625 9.22367C4.59375 9.22367 3.75 8.41199 3.75 7.37894ZM12.225 13.651C13.8 12.1199 24.4312 7.19447 24.4312 7.19447C24.4312 7.19447 19.4438 17.6726 17.8875 19.2037C16.3125 20.7533 13.8 20.7533 12.225 19.2037C11.4773 18.467 11.0574 17.4684 11.0574 16.4274C11.0574 15.3863 11.4773 14.3877 12.225 13.651ZM1.875 16.6026C1.875 15.588 2.71875 14.7579 3.75 14.7579C4.78125 14.7579 5.625 15.588 5.625 16.6026C5.625 17.6357 4.78125 18.4473 3.75 18.4473C2.71875 18.4473 1.875 17.6357 1.875 16.6026ZM13.125 16.6026C13.125 15.588 13.9688 14.7579 15 14.7579C16.0312 14.7579 16.875 15.588 16.875 16.6026C16.875 17.6357 16.0312 18.4473 15 18.4473C13.9688 18.4473 13.125 17.6357 13.125 16.6026ZM24.375 16.6026C24.375 15.588 25.2188 14.7579 26.25 14.7579C27.2812 14.7579 28.125 15.588 28.125 16.6026C28.125 17.6357 27.2812 18.4473 26.25 18.4473C25.2188 18.4473 24.375 17.6357 24.375 16.6026Z" fill="white"/>
</svg>
