<svg width="25" height="24" viewBox="0 0 25 24" fill="none" xmlns="http://www.w3.org/2000/svg">
<path d="M12.9343 2.01032C11.3416 2.00962 9.77323 2.4001 8.36687 3.14745C6.96051 3.8948 5.75925 4.97612 4.86869 6.2964C3.97812 7.61667 3.4255 9.13547 3.2594 10.7193C3.0933 12.3032 3.31881 13.9035 3.9161 15.3798C3.97032 15.5031 3.99925 15.636 4.00116 15.7706C4.00307 15.9052 3.97793 16.0389 3.92723 16.1636C3.87652 16.2884 3.80129 16.4016 3.70599 16.4968C3.61068 16.5919 3.49725 16.6669 3.37241 16.7174C3.24758 16.7678 3.11388 16.7927 2.97924 16.7906C2.8446 16.7884 2.71177 16.7593 2.58861 16.7048C2.46546 16.6504 2.35449 16.5717 2.26228 16.4736C2.17008 16.3755 2.09852 16.2598 2.05184 16.1335C1.03729 13.6245 0.921217 10.8419 1.7233 8.25715C2.52538 5.67235 4.1963 3.44423 6.45303 1.95019C8.70977 0.456141 11.4136 -0.211983 14.1065 0.0589827C16.7995 0.329948 19.3159 1.52334 21.2297 3.43704C23.1436 5.35073 24.337 7.86706 24.608 10.5598C24.879 13.2526 24.2108 15.9563 22.7167 18.2129C21.2226 20.4695 18.9943 22.1403 16.4093 22.9423C13.8244 23.7443 11.0417 23.6283 8.53248 22.6138C8.29055 22.51 8.09895 22.3156 7.99877 22.0722C7.8986 21.8287 7.89784 21.5558 7.99667 21.3118C8.09549 21.0678 8.28601 20.8723 8.52735 20.7672C8.7687 20.6621 9.04162 20.6558 9.28757 20.7496C10.6171 21.2862 12.0489 21.5222 13.4803 21.4407C14.9117 21.3591 16.3074 20.962 17.5674 20.2778C18.8273 19.5936 19.9204 18.6393 20.7682 17.4832C21.6161 16.3271 22.1978 14.9978 22.4717 13.5905C22.7455 12.1833 22.7048 10.7328 22.3523 9.34317C21.9998 7.9535 21.3444 6.65896 20.433 5.55228C19.5215 4.4456 18.3766 3.55416 17.0802 2.94182C15.7838 2.32947 14.368 2.01138 12.9343 2.01032Z" fill="white"/>
<path d="M5.22213 11.7338C5.22213 13.5 5.81628 15.1281 6.81547 16.429L6.18645 17.058L6.14755 17.0982H4.57836C4.04498 17.0987 3.53362 17.3109 3.1567 17.6883L0.96117 19.8837C0.820672 20.0243 0.725012 20.2035 0.686272 20.3985C0.647533 20.5935 0.667451 20.7956 0.743512 20.9793C0.819573 21.1629 0.948364 21.32 1.11362 21.4305C1.27888 21.541 1.47318 21.6001 1.672 21.6003H3.06684V22.995C3.06701 23.1939 3.1261 23.3882 3.23664 23.5534C3.34719 23.7186 3.50422 23.8474 3.68791 23.9235C3.87161 23.9995 4.07372 24.0195 4.26873 23.9807C4.46374 23.942 4.64289 23.8463 4.78356 23.7058L6.97909 21.5091C7.35616 21.1325 7.56839 20.6217 7.56922 20.0889V18.5198L7.60945 18.4809L8.23847 17.8532C9.61942 18.9131 11.3184 19.4746 13.059 19.4464C14.7996 19.4182 16.4794 18.8019 17.8253 17.6979C19.1711 16.5938 20.1039 15.0669 20.4717 13.3655C20.8395 11.664 20.6209 9.88823 19.8513 8.32686C19.0816 6.76549 17.8064 5.51042 16.2329 4.7658C14.6593 4.02117 12.8802 3.8308 11.1847 4.22564C9.48927 4.62049 7.97729 5.57732 6.89471 6.9405C5.81213 8.30369 5.22265 9.99303 5.22213 11.7338ZM12.934 6.03404C13.8285 6.03429 14.7104 6.24505 15.5083 6.64926C16.3063 7.05348 16.9979 7.63981 17.5272 8.36083C18.0566 9.08186 18.4088 9.91733 18.5554 10.7997C18.702 11.682 18.6388 12.5865 18.3711 13.44C18.1033 14.2934 17.6384 15.0718 17.014 15.7123C16.3896 16.3528 15.6232 16.8374 14.7769 17.1268C13.9305 17.4162 13.0279 17.5024 12.142 17.3784C11.2561 17.2544 10.4119 16.9236 9.67757 16.4129L11.8852 14.2041C12.4583 14.4472 13.0981 14.4834 13.695 14.3066C14.2919 14.1297 14.8087 13.7507 15.1568 13.2346C15.5048 12.7185 15.6625 12.0974 15.6029 11.4777C15.5432 10.8581 15.2698 10.2785 14.8296 9.83828C14.3893 9.3981 13.8097 9.12473 13.19 9.06504C12.5704 9.00535 11.9492 9.16305 11.4331 9.51111C10.9169 9.85917 10.5379 10.3759 10.361 10.9728C10.1841 11.5696 10.2204 12.2094 10.4635 12.7825L8.25322 14.9886C7.65852 14.1338 7.30938 13.1323 7.24373 12.0931C7.17808 11.0538 7.39843 10.0164 7.88084 9.09348C8.36325 8.1706 9.0893 7.3975 9.98014 6.85814C10.871 6.31877 11.8926 6.03376 12.934 6.03404ZM6.14755 18.4393L6.22803 18.5184V20.0875C6.22763 20.2652 6.15672 20.4355 6.03087 20.5609L4.40803 22.1837V20.9297C4.40803 20.7519 4.33738 20.5813 4.21162 20.4556C4.08586 20.3298 3.91529 20.2592 3.73744 20.2592H2.48208L4.10492 18.6364C4.1672 18.574 4.2412 18.5244 4.32267 18.4906C4.40414 18.4567 4.49149 18.4393 4.5797 18.4393H6.14755Z" fill="white"/>
</svg>
