<svg width="36" height="28" viewBox="0 0 36 28" fill="none" xmlns="http://www.w3.org/2000/svg">
<path d="M9.26149 12.8448C8.33144 11.9728 7.12174 11.4451 5.79802 11.4451C2.86662 11.4451 0.490234 14.0316 0.490234 17.2225C0.490234 20.4135 2.86662 23 5.79802 23C6.86 23 7.84957 22.6601 8.67922 22.075L8.58027 22.0004L10.2654 19.7653H13.0534V11.8136H9.26149V12.8448ZM9.26149 18.0601C8.92518 19.026 8.00589 19.7187 6.92598 19.7187C5.55995 19.7187 4.4535 18.6122 4.4535 17.2462C4.4535 15.8802 5.55995 14.7737 6.92598 14.7737C8.00661 14.7737 8.92518 15.4671 9.26149 16.433C9.3504 16.6876 9.39845 16.9615 9.39845 17.2462C9.39845 17.5309 9.3504 17.8055 9.26149 18.0601Z" fill="#B3B3B3"/>
<path d="M32.1068 11.8136V12.8448C31.2377 12.0288 30.1219 11.5146 28.8979 11.4515C28.8132 11.4472 28.7286 11.4451 28.6433 11.4451C28.4124 11.4451 28.1844 11.4608 27.9606 11.4924C27.4372 11.5655 26.9367 11.7219 26.4727 11.9492L24.0017 14.4202C23.9766 14.469 23.9522 14.5184 23.9285 14.5686C23.9264 14.5737 23.9242 14.578 23.9214 14.583C23.907 14.6138 23.892 14.6454 23.8783 14.6762C23.8647 14.7056 23.8525 14.7343 23.8396 14.7637C23.8245 14.7974 23.8102 14.8311 23.7966 14.8655C23.7772 14.9121 23.7586 14.9587 23.7407 15.0053C23.7363 15.0161 23.7328 15.0261 23.7292 15.0369C23.7263 15.0433 23.7242 15.0505 23.7213 15.057C23.7069 15.0943 23.694 15.1308 23.6804 15.1688C23.6804 15.1724 23.6783 15.1767 23.6768 15.1803C23.6589 15.2305 23.6424 15.2807 23.6266 15.3316C23.6109 15.3811 23.5958 15.4306 23.5807 15.4808C23.58 15.4843 23.5786 15.4879 23.5779 15.4915C23.565 15.536 23.5528 15.5804 23.5413 15.6256C23.5406 15.6278 23.5406 15.6299 23.5399 15.6321C23.5384 15.6378 23.537 15.6428 23.5356 15.6486C23.5341 15.6521 23.5334 15.6557 23.5327 15.6593C23.5313 15.6636 23.5305 15.6679 23.5291 15.6722C23.5184 15.7145 23.5076 15.7568 23.4983 15.7999C23.4976 15.8013 23.4976 15.8034 23.4968 15.8049C23.4954 15.8106 23.494 15.8156 23.4933 15.8214C23.4918 15.8285 23.4897 15.8357 23.4882 15.8429C23.4882 15.8472 23.4868 15.8515 23.4854 15.8551C23.4768 15.8952 23.4674 15.9339 23.4596 15.9748C23.4588 15.9791 23.4574 15.9834 23.4574 15.9877C23.456 15.9935 23.4553 15.9985 23.4538 16.0042C23.4445 16.0523 23.4352 16.101 23.4273 16.1491C23.4187 16.1985 23.4108 16.2473 23.4036 16.2975C23.4022 16.3032 23.4015 16.3097 23.4008 16.3154C23.4 16.3169 23.4 16.3183 23.4 16.3197C23.3993 16.324 23.3986 16.3291 23.3979 16.3334C23.3907 16.385 23.3843 16.4366 23.3778 16.489C23.3714 16.5463 23.3656 16.6037 23.3606 16.6611C23.3556 16.7191 23.3513 16.7772 23.3477 16.8353C23.3441 16.8934 23.3412 16.9515 23.3391 17.0103C23.3369 17.0806 23.3355 17.1515 23.3355 17.2225C23.3355 20.4135 25.7119 23 28.6433 23C29.967 23 31.1774 22.4722 32.1068 21.6003V22.5934H35.8986V11.8136H32.1068ZM32.1068 18.0615C31.7697 19.0267 30.8519 19.7187 29.7712 19.7187C28.4059 19.7187 27.2988 18.6122 27.2988 17.2462C27.2988 15.8802 28.4059 14.7737 29.7712 14.7737C30.8512 14.7737 31.7697 15.4657 32.1068 16.4309C32.1957 16.6862 32.2444 16.9608 32.2444 17.2462C32.2444 17.5316 32.1957 17.8062 32.1068 18.0615Z" fill="#B3B3B3"/>
<path d="M13.7246 21.1277V22.5934H17.3035V18.8252H16.0271L13.7246 21.1277Z" fill="#B3B3B3"/>
<path d="M13.7246 19.2009L15.0641 17.8622L15.4627 17.4628H17.3035V5.17568H13.7246V19.2009Z" fill="#B3B3B3"/>
<path d="M18.9162 17.4628H19.0323L24.6815 11.8136H22.6937V10.3006C22.6937 10.3006 22.6579 10.0231 22.6937 9.67317C22.7755 8.86431 23.2373 7.6668 25.4028 8.61764V5.35208C24.8521 5.12477 24.2483 5 23.6159 5C23.1727 5 22.7439 5.06167 22.3373 5.17568C20.3625 5.73285 18.9162 7.54705 18.9162 9.6997V11.8136H17.8994V15.0053H18.9162V17.4628Z" fill="#B3B3B3"/>
<path d="M9.83945 22.5934H13.0534V21.1277H10.9445L9.83945 22.5934Z" fill="#B3B3B3"/>
<path d="M18.9162 18.8252V22.5934H22.6937V15.7281L19.5967 18.8252H18.9162Z" fill="#B3B3B3"/>
<path d="M28.1241 9.08446L28.2697 9.13035L28.3966 9.53263L28.5135 9.9012L28.8548 10.9833L30.0609 7.33838L26.4161 8.5445L28.1241 9.08446Z" fill="#B3B3B3"/>
</svg>
