<svg width="74" height="28" viewBox="0 0 74 28" fill="none" xmlns="http://www.w3.org/2000/svg">
<g clip-path="url(#clip0_5001_4075)">
<path d="M26.4702 13.763C26.3067 13.661 26.1383 13.5869 25.9649 13.5408C25.7909 13.4947 25.6127 13.4569 25.4289 13.4255C25.4086 13.4157 25.3876 13.4101 25.3673 13.4101C25.5001 13.4003 25.6434 13.3772 25.7965 13.3409C25.9495 13.3053 26.0879 13.2465 26.2102 13.1648C26.5576 13.0019 26.8176 12.751 26.9916 12.4141C27.165 12.0773 27.2523 11.6887 27.2523 11.2497C27.2523 10.7088 27.1223 10.2384 26.8616 9.84001C26.6009 9.44162 26.2312 9.13549 25.7511 8.92093C25.2709 8.70636 24.7097 8.59872 24.066 8.59872H20.7328C20.6364 8.59872 20.5581 8.677 20.5581 8.77345V18.8917C20.5581 18.9798 20.6266 19.0553 20.7139 19.0658C21.1375 19.1168 21.5009 19.1538 21.8063 19.1769C22.1481 19.202 22.5542 19.2202 23.0246 19.2307H23.4076C24.8068 19.2307 25.8713 18.9679 26.6016 18.4416C27.332 17.916 27.6968 17.1521 27.6968 16.1513C27.6968 15.6201 27.5871 15.1476 27.367 14.7338C27.1475 14.3201 26.8484 13.9965 26.4709 13.761L26.4702 13.763ZM25.4289 10.316C25.735 10.5613 25.888 10.8982 25.888 11.3273C25.888 11.8075 25.7196 12.1905 25.3827 12.4763C25.0458 12.7622 24.6013 12.9055 24.0499 12.9055H21.9356V9.90291H24.0653C24.6677 9.93366 25.122 10.0713 25.4289 10.3167V10.316ZM25.6895 17.547C25.2506 17.8329 24.5713 17.9866 23.6522 18.0062C23.3761 18.0167 23.0854 18.0118 22.7792 17.9908C22.5311 17.974 22.2998 17.951 22.0845 17.9209C21.9985 17.909 21.9363 17.8343 21.9363 17.7469V14.1761H24.1428C24.5922 14.1761 24.9801 14.2558 25.3072 14.4137C25.6336 14.5724 25.8894 14.7995 26.0733 15.0959C26.2571 15.3922 26.3493 15.7494 26.3493 16.168C26.3493 16.8013 26.1292 17.2611 25.6902 17.547H25.6895Z" fill="#B3B3B3"/>
<path d="M30.0033 11.4168L28.9744 11.4056C28.8773 11.4042 28.7976 11.4832 28.7976 11.5803V18.9036C28.7976 19.0001 28.8759 19.0783 28.9724 19.0783H30.0012C30.0976 19.0783 30.1759 19.0001 30.1759 18.9036V11.5915C30.1759 11.4957 30.099 11.4175 30.0033 11.4168Z" fill="#B3B3B3"/>
<path d="M29.4407 8.7532C29.1961 8.7532 28.9913 8.83497 28.8284 8.99782C28.6649 9.16137 28.5831 9.36545 28.5831 9.61077C28.5831 9.8561 28.6649 10.0602 28.8284 10.2237C29.0479 10.4439 29.3421 10.5159 29.7091 10.4397C29.7279 10.4355 29.7489 10.4285 29.7664 10.4194C30.1214 10.237 30.2989 9.96653 30.2989 9.61077C30.2989 9.35567 30.2144 9.14879 30.0459 8.99013C29.8775 8.83148 29.6755 8.7525 29.4407 8.7525V8.7532Z" fill="#B3B3B3"/>
<path d="M36.613 11.5873C36.0972 11.291 35.5178 11.1435 34.8741 11.1435C34.1081 11.1435 33.4441 11.3427 32.8822 11.7411C32.3202 12.1395 31.8939 12.663 31.6031 13.3116C31.3117 13.9602 31.1663 14.657 31.1663 15.4027C31.1663 16.1485 31.3194 16.7992 31.6255 17.3863C31.9316 17.9741 32.3733 18.4332 32.9506 18.7652C33.5273 19.0972 34.2045 19.2636 34.9803 19.2636C35.5828 19.2636 36.1524 19.1615 36.6885 18.9574C37.1707 18.7736 37.5887 18.5325 37.9423 18.2327C38.0101 18.1753 38.0213 18.074 37.9717 18.0006L37.5202 17.3338C37.4636 17.2507 37.3497 17.2346 37.2693 17.2954C36.966 17.5239 36.6472 17.6973 36.3132 17.8154C35.9253 17.9531 35.5318 18.0223 35.1334 18.0223C34.2451 18.0223 33.5985 17.7462 33.1953 17.1948C32.8871 16.774 32.6976 16.2785 32.625 15.7089H37.9787C38.0612 15.7089 38.1345 15.6515 38.152 15.5705C38.2233 15.2357 38.2583 14.8883 38.2583 14.5291C38.2583 13.8854 38.1129 13.3088 37.8214 12.7978C37.5307 12.2869 37.1267 11.8837 36.6109 11.5873H36.613ZM32.9136 13.6093C33.1282 13.1906 33.4084 12.8845 33.7558 12.6902C34.1032 12.4966 34.4757 12.3995 34.8741 12.3995C35.4458 12.3995 35.926 12.591 36.3139 12.974C36.7018 13.357 36.8961 13.8343 36.8961 14.4061V14.5291H32.6389C32.6886 14.1852 32.7766 13.8756 32.9129 13.61L32.9136 13.6093Z" fill="#B3B3B3"/>
<path d="M44.8659 11.595C44.4367 11.3448 43.9566 11.2197 43.4261 11.2197C42.7418 11.2197 42.1058 11.4266 41.5187 11.8403C41.1965 12.0668 40.9051 12.3491 40.6367 12.6755C40.5913 12.4673 40.5332 12.2667 40.4536 12.0773C40.2879 11.6845 40.088 11.3734 39.8553 11.1449C39.7917 11.082 39.6848 11.0778 39.6163 11.1365L38.8999 11.7502C38.83 11.8103 38.8167 11.9151 38.8733 11.9871C39.025 12.1793 39.1403 12.3911 39.22 12.621C39.3171 12.902 39.3605 13.2368 39.35 13.6247V18.919C39.35 19.0154 39.4283 19.0937 39.5247 19.0937H40.5535C40.65 19.0937 40.7282 19.0154 40.7282 18.919V14.2481C40.7282 14.1286 40.7758 14.0189 40.8373 13.9168C40.8373 13.9168 40.8373 13.9161 40.838 13.9154C41.0973 13.4758 41.4132 13.1312 41.7857 12.8817C42.2044 12.6007 42.6643 12.4603 43.1647 12.4603C43.6959 12.4603 44.1166 12.6266 44.4283 12.9579C44.7401 13.2899 44.8952 13.7826 44.8952 14.4361V18.9337C44.8952 19.0301 44.9735 19.1084 45.0699 19.1084H46.0988C46.1952 19.1084 46.2735 19.0301 46.2735 18.9337V14.1754C46.2735 13.6037 46.1456 13.0928 45.8905 12.6434C45.6354 12.194 45.2929 11.8445 44.8645 11.5936L44.8659 11.595Z" fill="#B3B3B3"/>
<path d="M53.9742 17.8224H49.0538C48.9573 17.8224 48.879 17.7441 48.879 17.6477V8.77485C48.879 8.6784 48.8008 8.60012 48.7043 8.60012H47.6902C47.5937 8.60012 47.5154 8.6784 47.5154 8.77485V18.919C47.5154 19.0154 47.5937 19.0937 47.6902 19.0937H53.9742C54.0706 19.0937 54.1489 19.0154 54.1489 18.919V17.9971C54.1489 17.9007 54.0706 17.8224 53.9742 17.8224Z" fill="#B3B3B3"/>
<path d="M59.4789 11.5873C58.9631 11.291 58.3837 11.1435 57.74 11.1435C56.974 11.1435 56.31 11.3427 55.7481 11.7411C55.1861 12.1395 54.7598 12.663 54.469 13.3116C54.1776 13.9602 54.0322 14.657 54.0322 15.4027C54.0322 16.1485 54.1853 16.7992 54.4914 17.3863C54.7975 17.9741 55.2392 18.4332 55.8165 18.7652C56.3932 19.0972 57.0704 19.2636 57.8462 19.2636C58.4487 19.2636 59.0183 19.1615 59.5544 18.9574C60.0366 18.7736 60.4546 18.5325 60.8082 18.2327C60.876 18.1753 60.8872 18.074 60.8376 18.0006L60.3861 17.3338C60.3295 17.2507 60.2155 17.2346 60.1352 17.2954C59.8318 17.5239 59.5131 17.6973 59.179 17.8154C58.7911 17.9531 58.3977 18.0223 57.9993 18.0223C57.1109 18.0223 56.4644 17.7462 56.0612 17.1948C55.7529 16.774 55.5635 16.2785 55.4908 15.7089H60.8446C60.9271 15.7089 61.0004 15.6515 61.0179 15.5705C61.0892 15.2357 61.1241 14.8883 61.1241 14.5291C61.1241 13.8854 60.9788 13.3088 60.6873 12.7978C60.3966 12.2869 59.9926 11.8837 59.4768 11.5873H59.4789ZM55.7795 13.6093C55.9941 13.1906 56.2743 12.8845 56.6217 12.6902C56.9691 12.4966 57.3416 12.3995 57.74 12.3995C58.3117 12.3995 58.7918 12.591 59.1797 12.974C59.5676 13.357 59.7619 13.8343 59.7619 14.4061V14.5291H55.5048C55.5544 14.1852 55.6425 13.8756 55.7788 13.61L55.7795 13.6093Z" fill="#B3B3B3"/>
<path d="M68.0623 17.807C67.9547 17.5106 67.9016 17.1633 67.9016 16.7656V13.763C67.9016 12.946 67.659 12.3135 67.174 11.8634C66.6889 11.414 66.0173 11.1896 65.1597 11.1896C64.5369 11.1896 63.9135 11.2889 63.2908 11.488C62.733 11.6663 62.2662 11.8836 61.888 12.1394C61.8133 12.1905 61.793 12.2918 61.8377 12.3701L62.2487 13.0956C62.2983 13.1836 62.4094 13.2081 62.4947 13.1543C62.8099 12.9558 63.1769 12.7908 63.5969 12.6594C64.0868 12.5064 64.5565 12.4295 65.0066 12.4295C65.5175 12.4295 65.8978 12.5546 66.148 12.8048C66.3982 13.055 66.5233 13.4255 66.5233 13.9154V14.283C65.8691 14.2425 65.384 14.2215 65.0681 14.2215C63.9548 14.2117 63.0944 14.4333 62.487 14.8876C61.879 15.3419 61.5756 15.9828 61.5756 16.8103C61.5756 17.3108 61.6882 17.7546 61.9125 18.1432C62.1369 18.5311 62.4437 18.8274 62.8316 19.0315C63.2195 19.2356 63.664 19.3376 64.1644 19.3376C64.5831 19.3376 64.9815 19.2538 65.3596 19.0853C65.7377 18.9169 66.0641 18.6946 66.3402 18.4192C66.4841 18.2753 66.6072 18.1257 66.712 17.9705C66.7232 18.1592 66.7721 18.3494 66.8686 18.5416C67.0146 18.8337 67.2082 19.1028 67.4501 19.3488C67.5137 19.4138 67.6185 19.4159 67.6877 19.3579L68.4181 18.7414C68.4893 18.6813 68.4977 18.5765 68.4418 18.5017C68.279 18.2844 68.1525 18.0523 68.0637 17.8063L68.0623 17.807ZM66.5226 16.3057C66.5226 16.6223 66.4275 16.9208 66.2388 17.2017C66.0501 17.4827 65.7894 17.7049 65.4574 17.8678C65.1254 18.0313 64.7704 18.1131 64.393 18.1131C63.9534 18.1131 63.599 17.9957 63.3285 17.7609C63.058 17.526 62.9224 17.1843 62.9224 16.7348C62.9224 16.2854 63.0909 15.9178 63.4278 15.6935C63.7646 15.4691 64.2651 15.3566 64.929 15.3566C65.4295 15.3566 65.8481 15.3671 66.1857 15.3873C66.3283 15.3873 66.4408 15.3929 66.5226 15.4027V16.3064V16.3057Z" fill="#B3B3B3"/>
<path d="M71.1718 9.30464C71.3451 9.10055 71.6107 8.99851 71.9686 8.99851C72.2481 8.99851 72.4997 9.07959 72.7234 9.24104C72.801 9.29695 72.9107 9.27039 72.9631 9.19071L73.4594 8.44147C73.509 8.36669 73.4957 8.26325 73.4244 8.20803C72.9946 7.87744 72.4641 7.7118 71.8309 7.7118C71.1159 7.7118 70.5539 7.92637 70.1458 8.3555C69.7369 8.78464 69.5328 9.40738 69.5328 10.2244V11.4196H68.8192C68.7228 11.4196 68.6445 11.4979 68.6445 11.5943V12.4547C68.6445 12.5511 68.7228 12.6294 68.8192 12.6294H69.5328V18.9043C69.5328 19.0008 69.6111 19.079 69.7075 19.079H70.7364C70.8328 19.079 70.9111 19.0008 70.9111 18.9043V12.6294H72.8967C72.9932 12.6294 73.0714 12.5511 73.0714 12.4547V11.5943C73.0714 11.4979 72.9932 11.4196 72.8967 11.4196H70.9111V10.2244C70.9111 9.81625 70.9978 9.50942 71.1718 9.30534V9.30464Z" fill="#B3B3B3"/>
<path d="M13.2208 14.7052C14.2301 13.1229 14.3894 11.5475 14.4118 11.0638C14.4181 10.973 14.4174 10.9206 14.4174 10.9206C14.4181 7.6559 11.7622 5 8.49751 5H2.44626C1.24481 5 0.267023 5.97709 0.267023 7.17854V14.6598H0.265625V20.8201C0.265625 21.3736 0.474602 21.8817 0.815675 22.2654C1.21476 22.7162 1.79836 23 2.44556 23H10.632C11.8446 23 12.9881 22.5282 13.8526 21.6665C14.7116 20.8075 15.1834 19.6648 15.1834 18.4458C15.1834 16.9306 14.4362 15.5425 13.2208 14.7052ZM2.44626 6.52924H8.49751C10.588 6.52924 12.3388 7.99907 12.7791 9.95395C7.91671 9.76384 4.37877 11.1428 2.25266 14.0636C2.08981 14.2901 1.93884 14.5193 1.79696 14.752V7.17854C1.79696 6.82069 2.08841 6.52924 2.44626 6.52924ZM1.79626 20.8201V20.5824C1.79626 19.5243 1.93884 18.4682 2.25755 17.4597C2.51894 16.6307 2.90894 15.7641 3.48975 14.9624C5.30973 12.4589 8.44859 11.2945 12.8294 11.4874C12.7211 12.1765 12.4087 13.3801 11.5085 14.4655C10.2113 16.0353 8.13687 16.832 5.33909 16.8418C6.12817 15.1043 7.61058 13.7966 9.86879 13.22C5.45441 13.7414 3.35835 17.3052 3.25351 21.4701H2.44626C2.08911 21.4701 1.79626 21.18 1.79626 20.8201ZM12.7742 20.5838C12.1997 21.1555 11.4379 21.4701 10.6334 21.4701H4.71985C4.70936 21.3743 4.70028 21.2821 4.69259 21.2185C4.60662 20.2113 4.65764 19.2517 4.84495 18.3634C4.99312 18.3669 5.14269 18.3738 5.28807 18.3738C8.31579 18.3738 10.6565 17.5428 12.2661 15.9032C13.1251 16.4532 13.6541 17.4058 13.6541 18.4465C13.6541 19.2573 13.3396 20.0163 12.7742 20.5845V20.5838Z" fill="#B3B3B3"/>
</g>
<defs>
<clipPath id="clip0_5001_4075">
<rect width="73.2234" height="28" fill="white" transform="translate(0.265625)"/>
</clipPath>
</defs>
</svg>
