<svg width="90" height="16" viewBox="0 0 90 16" fill="none" xmlns="http://www.w3.org/2000/svg">
<path fill-rule="evenodd" clip-rule="evenodd" d="M34.7113 4.77179C34.7113 4.69098 34.7919 4.52937 34.9529 4.52937H35.2751C35.4362 4.52937 35.5167 4.61018 35.5167 4.77179V9.70188H42.9263V4.77179C42.9263 4.69098 43.0069 4.52937 43.1679 4.52937H43.4901C43.6512 4.52937 43.7317 4.61018 43.7317 4.77179V15.5209C43.7317 15.6017 43.6512 15.7634 43.4901 15.7634H43.1679C43.0874 15.7634 42.9263 15.6825 42.9263 15.5209V10.3484H35.5167V15.5209C35.5167 15.6017 35.4362 15.7634 35.2751 15.7634H34.9529C34.8724 15.7634 34.7113 15.6825 34.7113 15.5209V4.77179ZM51.3019 4.37136C54.604 4.37136 57.2618 6.95765 57.2618 10.1096C57.2618 13.3424 54.604 15.8479 51.3019 15.8479C47.9998 15.8479 45.342 13.3424 45.342 10.1096C45.342 6.95765 47.9998 4.37136 51.3019 4.37136ZM60.1611 5.25677H57.02C56.8589 5.25677 56.7784 5.17589 56.7784 5.01428V4.77179C56.7784 4.61018 56.8589 4.52937 57.02 4.52937H64.1075C64.2686 4.52937 64.3491 4.61018 64.3491 4.77179V5.01428C64.3491 5.09509 64.2686 5.25677 64.1075 5.25677H60.9665V15.5209C60.9665 15.6017 60.8859 15.7634 60.7248 15.7634H60.4027C60.3221 15.7634 60.1611 15.6825 60.1611 15.5209V5.25677ZM65.8786 4.77179C65.8786 4.69098 65.9592 4.52937 66.1202 4.52937H72.7243C72.8048 4.52937 72.966 4.61018 72.966 4.77179V5.01428C72.966 5.09509 72.8854 5.25677 72.7243 5.25677H66.6838V9.621H71.919C71.9996 9.621 72.1608 9.70188 72.1608 9.86349V10.106C72.1608 10.1868 72.0802 10.3484 71.919 10.3484H66.6838V15.036H72.7243C72.8048 15.036 72.966 15.1168 72.966 15.2784V15.5209C72.966 15.6017 72.8854 15.7634 72.7243 15.7634H66.1202C66.0397 15.7634 65.8786 15.6825 65.8786 15.5209V4.77179ZM74.9795 4.77179C74.9795 4.69098 75.0601 4.52937 75.2213 4.52937H75.6236C75.7042 4.52937 75.7848 4.61018 75.7848 4.77179V15.036H81.02C81.1812 15.036 81.2618 15.1168 81.2618 15.2784V15.6017C81.2618 15.6825 81.1812 15.7634 81.02 15.7634H75.2213C75.1407 15.7634 74.9795 15.6825 74.9795 15.5209V4.77179ZM82.2297 14.2315L82.3901 14.0698C82.4707 13.9082 82.6319 13.9082 82.7931 13.989C82.9543 14.1506 84.1626 15.2013 85.8536 15.2013C87.3835 15.2013 88.5918 14.2315 88.5918 13.1C88.5918 11.6452 87.3835 11.0795 85.3701 10.3521C83.4372 9.70548 82.1491 9.05896 82.1491 7.20007C82.1491 5.98777 83.1155 4.37136 85.6925 4.37136C87.3037 4.37136 88.5112 5.17957 88.5112 5.17957C88.5918 5.26037 88.6724 5.34125 88.5918 5.50286C88.5515 5.54327 88.5313 5.58368 88.5111 5.62411C88.491 5.66451 88.4709 5.70492 88.4306 5.74535C88.3507 5.90696 88.2701 5.90696 88.0283 5.82616C88.0122 5.82616 87.9574 5.79702 87.8697 5.75048C87.5191 5.56424 86.6429 5.09876 85.6119 5.09876C83.5984 5.09876 82.7931 6.31106 82.7931 7.20007C82.7931 8.57406 83.8402 9.13977 85.5313 9.70548C87.7865 10.4329 89.2366 11.2411 89.2366 13.1C89.2366 14.7164 87.5447 15.9287 85.6119 15.9287C83.8531 15.9287 82.5615 14.9919 82.1609 14.7013C82.1212 14.6726 82.0903 14.6501 82.0685 14.6356C82.1003 14.5718 82.107 14.5206 82.1133 14.4721C82.1231 14.3976 82.1321 14.3293 82.2297 14.2315ZM20.5365 0.557183H23.3554V5.32559C24.3219 4.35577 25.6911 3.95167 26.9797 3.95167C30.5234 3.95167 32.8591 6.94199 32.8591 9.93231C32.8591 12.1953 31.3288 15.9938 27.0603 15.9938C24.8052 15.9938 23.8387 15.024 23.1138 14.2966V15.6706H20.5365V0.557183ZM19.5705 15.5959H16.9933V14.222C16.1074 15.2726 14.416 16 12.8858 16C9.90584 16 7.16749 13.6562 7.16749 9.93849C7.16749 6.46319 9.74478 3.95778 13.0469 3.95778C15.4631 3.95778 16.8322 5.57418 16.9128 5.73586H16.9933V4.28107H19.5705V15.5959ZM7.73174 0C7.08766 0 6.52399 0.161591 5.9604 0.323155C5.15501 0.646451 4.42965 1.2123 3.94643 1.9397C3.46321 2.58629 3.22156 3.39449 3.14104 4.2835H0V6.6273H3.14104V15.5175H5.95991V4.44511C5.95991 4.20269 6.04043 3.9602 6.12096 3.79859C6.28208 3.4753 6.44313 3.23281 6.7653 3.0712C7.00695 2.82871 7.32905 2.7479 7.73174 2.7479H9.02043V0H7.73174ZM13.5301 6.38238C11.1944 6.38238 10.067 8.32208 10.067 10.0193C10.067 11.959 11.5166 13.4946 13.5301 13.4946C15.4631 13.4946 16.9128 12.0398 16.9128 9.93849C16.9128 7.59469 15.2214 6.38238 13.5301 6.38238ZM30.1207 9.93231C30.1207 12.1145 28.5905 13.4884 26.7381 13.4884C25.0468 13.4884 23.1944 12.2761 23.2749 9.7707C23.2749 8.1543 24.5635 6.37628 26.7381 6.37628C28.5099 6.37628 30.1207 7.75019 30.1207 9.93231ZM51.3019 15.2013C54.2013 15.2013 56.537 12.9383 56.537 10.1905C56.537 7.36176 54.2013 5.09876 51.3019 5.09876C48.4025 5.09876 46.0669 7.36176 46.0669 10.1905C46.0669 12.9383 48.4025 15.2013 51.3019 15.2013Z" fill="#B3B3B3"/>
<path d="M34.7113 4.77179C34.7113 4.69098 34.7919 4.52937 34.9529 4.52937H35.2751C35.4362 4.52937 35.5167 4.61018 35.5167 4.77179V9.70188H42.9263V4.77179C42.9263 4.69098 43.0069 4.52937 43.1679 4.52937H43.4901C43.6512 4.52937 43.7317 4.61018 43.7317 4.77179V15.5209C43.7317 15.6017 43.6512 15.7634 43.4901 15.7634H43.1679C43.0874 15.7634 42.9263 15.6825 42.9263 15.5209V10.3484H35.5167V15.5209C35.5167 15.6017 35.4362 15.7634 35.2751 15.7634H34.9529C34.8724 15.7634 34.7113 15.6825 34.7113 15.5209V4.77179Z" fill="#B3B3B3"/>
<path d="M51.3019 4.37136C54.604 4.37136 57.2618 6.95765 57.2618 10.1096C57.2618 13.3424 54.604 15.8479 51.3019 15.8479C47.9998 15.8479 45.342 13.3424 45.342 10.1096C45.342 6.95765 47.9998 4.37136 51.3019 4.37136ZM51.3019 15.2013C54.2013 15.2013 56.537 12.9383 56.537 10.1905C56.537 7.36176 54.2013 5.09876 51.3019 5.09876C48.4025 5.09876 46.0669 7.36176 46.0669 10.1905C46.0669 12.9383 48.4025 15.2013 51.3019 15.2013Z" fill="#B3B3B3"/>
<path d="M60.1611 5.25677H57.02C56.8589 5.25677 56.7784 5.17589 56.7784 5.01428V4.77179C56.7784 4.61018 56.8589 4.52937 57.02 4.52937H64.1075C64.2686 4.52937 64.3491 4.61018 64.3491 4.77179V5.01428C64.3491 5.09509 64.2686 5.25677 64.1075 5.25677H60.9665V15.5209C60.9665 15.6017 60.8859 15.7634 60.7248 15.7634H60.4027C60.3221 15.7634 60.1611 15.6825 60.1611 15.5209V5.25677Z" fill="#B3B3B3"/>
<path d="M65.8786 4.77179C65.8786 4.69098 65.9592 4.52937 66.1202 4.52937H72.7243C72.8048 4.52937 72.966 4.61018 72.966 4.77179V5.01428C72.966 5.09509 72.8854 5.25677 72.7243 5.25677H66.6838V9.621H71.919C71.9996 9.621 72.1608 9.70188 72.1608 9.86349V10.106C72.1608 10.1868 72.0802 10.3484 71.919 10.3484H66.6838V15.036H72.7243C72.8048 15.036 72.966 15.1168 72.966 15.2784V15.5209C72.966 15.6017 72.8854 15.7634 72.7243 15.7634H66.1202C66.0397 15.7634 65.8786 15.6825 65.8786 15.5209V4.77179Z" fill="#B3B3B3"/>
<path d="M74.9795 4.77179C74.9795 4.69098 75.0601 4.52937 75.2213 4.52937H75.6236C75.7042 4.52937 75.7848 4.61018 75.7848 4.77179V15.036H81.02C81.1812 15.036 81.2618 15.1168 81.2618 15.2784V15.6017C81.2618 15.6825 81.1812 15.7634 81.02 15.7634H75.2213C75.1407 15.7634 74.9795 15.6825 74.9795 15.5209V4.77179Z" fill="#B3B3B3"/>
<path d="M82.2297 14.2315L82.3901 14.0698C82.4707 13.9082 82.6319 13.9082 82.7931 13.989C82.9543 14.1506 84.1626 15.2013 85.8536 15.2013C87.3835 15.2013 88.5918 14.2315 88.5918 13.1C88.5918 11.6452 87.3835 11.0795 85.3701 10.3521C83.4372 9.70548 82.1491 9.05896 82.1491 7.20007C82.1491 5.98777 83.1155 4.37136 85.6925 4.37136C87.3037 4.37136 88.5112 5.17957 88.5112 5.17957C88.5918 5.26037 88.6724 5.34125 88.5918 5.50286C88.5112 5.58367 88.5112 5.66447 88.4306 5.74535C88.3507 5.90696 88.2701 5.90696 88.0283 5.82616C87.9477 5.82616 86.9007 5.09876 85.6119 5.09876C83.5984 5.09876 82.7931 6.31106 82.7931 7.20007C82.7931 8.57406 83.8402 9.13977 85.5313 9.70548C87.7865 10.4329 89.2366 11.2411 89.2366 13.1C89.2366 14.7164 87.5447 15.9287 85.6119 15.9287C83.679 15.9287 82.3103 14.7972 82.0685 14.6356C82.1491 14.4739 82.0685 14.3931 82.2297 14.2315Z" fill="#B3B3B3"/>
<path d="M20.5365 0.557183H23.3554V5.32559C24.3219 4.35577 25.6911 3.95167 26.9797 3.95167C30.5234 3.95167 32.8591 6.94199 32.8591 9.93231C32.8591 12.1953 31.3288 15.9938 27.0603 15.9938C24.8052 15.9938 23.8387 15.024 23.1138 14.2966V15.6706H20.5365V0.557183ZM26.7381 13.4884C28.5905 13.4884 30.1207 12.1145 30.1207 9.93231C30.1207 7.75019 28.5099 6.37628 26.7381 6.37628C24.5635 6.37628 23.2749 8.1543 23.2749 9.7707C23.1944 12.2761 25.0468 13.4884 26.7381 13.4884Z" fill="#B3B3B3"/>
<path d="M19.5705 15.5959H16.9933V14.222C16.1074 15.2726 14.416 16 12.8858 16C9.90584 16 7.16749 13.6562 7.16749 9.93849C7.16749 6.46319 9.74478 3.95778 13.0469 3.95778C15.4631 3.95778 16.8322 5.57418 16.9128 5.73586H16.9933V4.28107H19.5705V15.5959ZM13.5301 6.38238C11.1944 6.38238 10.067 8.32208 10.067 10.0193C10.067 11.959 11.5166 13.4946 13.5301 13.4946C15.4631 13.4946 16.9128 12.0398 16.9128 9.93849C16.9128 7.59469 15.2214 6.38238 13.5301 6.38238Z" fill="#B3B3B3"/>
<path d="M7.73174 0C7.08766 0 6.52399 0.161591 5.9604 0.323155C5.15501 0.646451 4.42965 1.2123 3.94643 1.9397C3.46321 2.58629 3.22156 3.39449 3.14104 4.2835H0V6.6273H3.14104V15.5175H5.95991V4.44511C5.95991 4.20269 6.04043 3.9602 6.12096 3.79859C6.28208 3.4753 6.44313 3.23281 6.7653 3.0712C7.00695 2.82871 7.32905 2.7479 7.73174 2.7479H9.02043V0H7.73174Z" fill="#B3B3B3"/>
</svg>
