<svg width="109" height="28" viewBox="0 0 109 28" fill="none" xmlns="http://www.w3.org/2000/svg">
<g clip-path="url(#clip0_5001_4073)">
<path d="M11.0215 19.9704H10.4882L2.22151 11.9407V19.9704H0.236328V8H0.769661L9.03633 15.9111V8H11.0215V19.9704ZM23.1104 14.8741H17.0956V18.1926H24.2067V19.9407H15.1104V8H24.1771V9.74815H17.066V13.1852H23.0808V14.8741H23.1104ZM30.4586 19.9704H28.4734V8H30.4586V19.9704ZM35.1993 19.9704V8H37.1845V18.2222H43.8215V19.9704H35.1993ZM47.6141 8H52.8289C55.8215 8 57.6586 9.45185 57.6586 12.0593C57.6586 14.8148 55.6734 16.2963 52.7104 16.2963H49.5993V20H47.6141V8ZM52.74 9.74815H49.5993V14.5481H52.74C54.5178 14.5481 55.6437 13.837 55.6437 12.1481C55.6141 10.5481 54.4882 9.74815 52.74 9.74815ZM65.066 8H65.4511L71.5252 19.9704H69.2734L68.3845 18.163H62.1623L61.2734 19.9704H59.0511L65.066 8ZM65.3326 11.6444H65.2141L63.0511 16.3259L62.9326 16.5333H67.5845L67.466 16.3259L65.3326 11.6444ZM72.4141 8H82.4585V9.74815H78.4289V19.9704H76.4437V9.74815H72.4141V8ZM94.2808 14.8741H88.266V18.1926H95.3771V19.9407H86.3104V8H95.3771V9.74815H88.266V13.1852H94.2808V14.8741ZM99.6437 19.9704V8H101.629V18.2222H108.266V19.9704H99.6437Z" fill="#B3B3B3"/>
</g>
<defs>
<clipPath id="clip0_5001_4073">
<rect width="108.03" height="28" fill="white" transform="translate(0.236328)"/>
</clipPath>
</defs>
</svg>
